SplineFontDB: 3.2
FontName: Khaanaa-yellow
FullName: Khaanaa Yellow
FamilyName: Khaanaa
Weight: Book
Copyright: Copyright 2024 The Khaanaa Font Authors
Version: 0.001
ItalicAngle: 0
UnderlinePosition: -101
UnderlineWidth: 51
Ascent: 819
Descent: 205
InvalidEm: 0
sfntRevision: 0x00000041
LayerCount: 2
Layer: 0 1 "Back" 1
Layer: 1 1 "Fore" 0
XUID: [1021 557 1747282856 10339126]
StyleMap: 0x0040
FSType: 0
OS2Version: 1
OS2_WeightWidthSlopeOnly: 0
OS2_UseTypoMetrics: 0
CreationTime: 1732813800
ModificationTime: 1733482147
PfmFamily: 17
TTFWeight: 400
TTFWidth: 5
LineGap: 0
VLineGap: 0
Panose: 2 0 5 3 0 0 0 0 0 0
OS2TypoAscent: 839
OS2TypoAOffset: 0
OS2TypoDescent: -210
OS2TypoDOffset: 0
OS2TypoLinegap: 0
OS2WinAscent: 839
OS2WinAOffset: 0
OS2WinDescent: 210
OS2WinDOffset: 0
HheadAscent: 839
HheadAOffset: 0
HheadDescent: -210
HheadDOffset: 0
OS2SubXSize: 665
OS2SubYSize: 716
OS2SubXOff: 0
OS2SubYOff: 143
OS2SupXSize: 665
OS2SupYSize: 716
OS2SupXOff: 0
OS2SupYOff: 491
OS2StrikeYSize: 51
OS2StrikeYPos: 265
OS2FamilyClass: 1283
OS2Vendor: 'anir'
OS2CodePages: 00000001.00000000
OS2UnicodeRanges: 00000001.10000000.00000000.00000000
Lookup: 4 0 0 "'dlig' Discretionary Ligatures in Latin lookup 0" { "'dlig' Discretionary Ligatures in Latin lookup 0 subtable"  } ['dlig' ('DFLT' <'dflt' > 'latn' <'dflt' > ) ]
MarkAttachClasses: 1
DEI: 91125
ShortTable: maxp 16
  1
  0
  101
  206
  8
  0
  0
  2
  0
  1
  1
  0
  64
  0
  0
  0
EndShort
LangName: 1033 "" "" "" "anir : Khaanaa Yellow : 1-12-2024" "" "Version 0.001" "" "" "" "" "" "" "" "Copyright 2024, The Khaanaa Font Authors+AAoA-This Font Software is licensed under the SIL Open Font License, Version 1.1.+AAoA-This license is available with a FAQ at:https://openfontlicense.org" "https://openfontlicense.org"
GaspTable: 1 65535 2 0
Encoding: UnicodeFull
UnicodeInterp: none
NameList: AGL For New Fonts
DisplaySize: -128
AntiAlias: 1
FitToEm: 0
WinInfo: 58200 10 4
BeginChars: 1114115 105

StartChar: .notdef
Encoding: 0 -1 0
AltUni2: 000000.ffffffff.0
Width: 512
Flags: W
LayerCount: 2
Fore
SplineSet
512 800 m 2,0,1
 512 809 512 809 505.5 815.5 c 128,-1,2
 499 822 499 822 490 822 c 2,3,-1
 22 822 l 2,4,5
 13 822 13 822 6.5 815.5 c 128,-1,6
 0 809 0 809 0 800 c 2,7,-1
 0 0 l 2,8,9
 0 -9 0 -9 6.5 -15.5 c 128,-1,10
 13 -22 13 -22 22 -22 c 2,11,-1
 490 -22 l 2,12,13
 499 -22 499 -22 505.5 -15.5 c 128,-1,14
 512 -9 512 -9 512 0 c 2,15,-1
 512 800 l 2,0,1
-5 800 m 2,16,17
 -5 811 -5 811 3 819 c 128,-1,18
 11 827 11 827 22 827 c 2,19,-1
 490 827 l 2,20,21
 501 827 501 827 509 819 c 128,-1,22
 517 811 517 811 517 800 c 2,23,-1
 517 0 l 2,24,25
 517 -11 517 -11 509 -19 c 128,-1,26
 501 -27 501 -27 490 -27 c 2,27,-1
 22 -27 l 2,28,29
 11 -27 11 -27 3 -19 c 128,-1,30
 -5 -11 -5 -11 -5 0 c 2,31,-1
 -5 800 l 2,16,17
463 773 m 1,32,-1
 49 773 l 1,33,-1
 49 27 l 1,34,-1
 463 27 l 1,35,-1
 463 773 l 1,32,-1
468 775 m 2,36,-1
 468 25 l 2,37,38
 468 22 468 22 465 22 c 2,39,-1
 47 22 l 2,40,41
 44 22 44 22 44 25 c 2,42,-1
 44 775 l 2,43,44
 44 778 44 778 47 778 c 2,45,-1
 465 778 l 2,46,47
 468 778 468 778 468 775 c 2,36,-1
356 508 m 0,48,49
 356 504 356 504 353.5 485.5 c 128,-1,50
 351 467 351 467 343.5 444.5 c 128,-1,51
 336 422 336 422 326 422 c 2,52,-1
 246 422 l 2,53,54
 237 422 237 422 230.5 415.5 c 128,-1,55
 224 409 224 409 224 400 c 2,56,-1
 224 212 l 2,57,58
 224 203 224 203 230.5 196.5 c 128,-1,59
 237 190 237 190 246 190 c 128,-1,60
 255 190 255 190 261.5 196.5 c 128,-1,61
 268 203 268 203 268 212 c 2,62,-1
 268 375 l 2,63,64
 268 378 268 378 271 378 c 2,65,-1
 340 378 l 2,66,67
 368 378 368 378 384.5 428.5 c 128,-1,68
 401 479 401 479 401 508 c 0,69,70
 401 570 401 570 359 615 c 128,-1,71
 317 660 317 660 258 660 c 0,72,73
 229 660 229 660 189.5 644.5 c 128,-1,74
 150 629 150 629 150 604 c 2,75,-1
 150 570 l 2,76,77
 150 561 150 561 156.5 554.5 c 128,-1,78
 163 548 163 548 172 548 c 128,-1,79
 181 548 181 548 187.5 554.5 c 128,-1,80
 194 561 194 561 194 570 c 2,81,-1
 194 591 l 2,82,83
 194 601 194 601 220 608.5 c 128,-1,84
 246 616 246 616 258 616 c 0,85,86
 297 616 297 616 326.5 583 c 128,-1,87
 356 550 356 550 356 508 c 0,48,49
250 174 m 128,-1,89
 241 174 241 174 234.5 167.5 c 128,-1,90
 228 161 228 161 228 152 c 2,91,-1
 228 108 l 2,92,93
 228 99 228 99 234.5 92.5 c 128,-1,94
 241 86 241 86 250 86 c 128,-1,95
 259 86 259 86 265.5 92.5 c 128,-1,96
 272 99 272 99 272 108 c 2,97,-1
 272 152 l 2,98,99
 272 161 272 161 265.5 167.5 c 128,-1,88
 259 174 259 174 250 174 c 128,-1,89
250 81 m 128,-1,101
 239 81 239 81 231 89 c 128,-1,102
 223 97 223 97 223 108 c 2,103,-1
 223 152 l 2,104,105
 223 163 223 163 231 171 c 128,-1,106
 239 179 239 179 250 179 c 128,-1,107
 261 179 261 179 269 171 c 128,-1,108
 277 163 277 163 277 152 c 2,109,-1
 277 108 l 2,110,111
 277 97 277 97 269 89 c 128,-1,100
 261 81 261 81 250 81 c 128,-1,101
258 611 m 1,112,113
 230 611 230 611 199 590 c 1,114,-1
 199 570 l 2,115,116
 199 559 199 559 191 551 c 128,-1,117
 183 543 183 543 172 543 c 128,-1,118
 161 543 161 543 153 551 c 128,-1,119
 145 559 145 559 145 570 c 2,120,-1
 145 604 l 2,121,122
 145 631 145 631 185.5 648 c 128,-1,123
 226 665 226 665 258 665 c 0,124,125
 319 665 319 665 362.5 619 c 128,-1,126
 406 573 406 573 406 508 c 0,127,128
 406 477 406 477 388 425 c 128,-1,129
 370 373 370 373 340 373 c 2,130,-1
 273 373 l 1,131,-1
 273 212 l 2,132,133
 273 201 273 201 265 193 c 128,-1,134
 257 185 257 185 246 185 c 128,-1,135
 235 185 235 185 227 193 c 128,-1,136
 219 201 219 201 219 212 c 2,137,-1
 219 400 l 2,138,139
 219 411 219 411 227 419 c 128,-1,140
 235 427 235 427 246 427 c 2,141,-1
 325 427 l 1,142,143
 351 471 351 471 351 508 c 0,144,145
 351 531 351 531 343.5 548.5 c 128,-1,146
 336 566 336 566 319 578 c 128,-1,147
 302 590 302 590 291 596 c 128,-1,148
 280 602 280 602 258 611 c 1,112,113
EndSplineSet
EndChar

StartChar: exclam
Encoding: 33 33 4
Width: 252
GlyphClass: 2
Flags: W
LayerCount: 2
Fore
SplineSet
50 258 m 1,0,-1
 50 772 l 1,1,-1
 202 772 l 1,2,-1
 202 258 l 1,3,-1
 50 258 l 1,0,-1
50 -2 m 1,4,-1
 50 140 l 1,5,-1
 202 140 l 1,6,-1
 202 -2 l 1,7,-1
 50 -2 l 1,4,-1
EndSplineSet
EndChar

StartChar: quotedbl
Encoding: 34 34 5
Width: 452
GlyphClass: 2
Flags: W
LayerCount: 2
Fore
SplineSet
250 532 m 1,0,-1
 250 789 l 1,1,-1
 402 789 l 1,2,-1
 402 532 l 1,3,-1
 250 532 l 1,0,-1
50 532 m 1,4,-1
 50 789 l 1,5,-1
 202 789 l 1,6,-1
 202 532 l 1,7,-1
 50 532 l 1,4,-1
EndSplineSet
EndChar

StartChar: numbersign
Encoding: 35 35 6
Width: 644
GlyphClass: 2
Flags: W
LayerCount: 2
Fore
SplineSet
149 692 m 1,0,-1
 301 692 l 1,1,-1
 288 618 l 1,2,-1
 436 618 l 1,3,-1
 449 692 l 1,4,-1
 601 692 l 1,5,-1
 588 618 l 1,6,-1
 599 618 l 1,7,-1
 599 466 l 1,8,-1
 561 466 l 1,9,-1
 544 368 l 1,10,-1
 599 368 l 1,11,-1
 599 216 l 1,12,-1
 517 216 l 1,13,-1
 505 149 l 1,14,-1
 353 149 l 1,15,-1
 365 216 l 1,16,-1
 217 216 l 1,17,-1
 205 149 l 1,18,-1
 53 149 l 1,19,-1
 65 216 l 1,20,-1
 55 216 l 1,21,-1
 55 368 l 1,22,-1
 92 368 l 1,23,-1
 109 466 l 1,24,-1
 55 466 l 1,25,-1
 55 618 l 1,26,-1
 136 618 l 1,27,-1
 149 692 l 1,0,-1
409 466 m 1,28,-1
 261 466 l 1,29,-1
 244 368 l 1,30,-1
 392 368 l 1,31,-1
 409 466 l 1,28,-1
EndSplineSet
EndChar

StartChar: dollar
Encoding: 36 36 7
Width: 512
GlyphClass: 2
Flags: W
LayerCount: 2
Fore
SplineSet
60 57 m 1,0,-1
 135 182 l 1,1,2
 143 176 143 176 157 167 c 0,3,4
 195 145 195 145 238 155 c 0,5,6
 246 157 246 157 253 160 c 1,7,-1
 253 310 l 1,8,9
 243 313 243 313 232 315 c 0,10,11
 183 342 183 342 147 375 c 128,-1,12
 111 408 111 408 90 449 c 128,-1,13
 69 490 69 490 72 539 c 128,-1,14
 75 588 75 588 106 639 c 0,15,16
 157 723 157 723 253 758 c 1,17,-1
 253 1030 l 1,18,-1
 332 1030 l 1,19,-1
 332 774 l 1,20,21
 403 777 403 777 458 727 c 0,22,23
 461 724 461 724 468.5 719.5 c 128,-1,24
 476 715 476 715 479 712 c 1,25,-1
 404 587 l 1,26,27
 392 597 392 597 382 602 c 0,28,29
 358 615 358 615 332 616 c 1,30,-1
 332 401 l 1,31,32
 361 383 361 383 383 366 c 0,33,34
 416 339 416 339 440.5 304 c 128,-1,35
 465 269 465 269 463.5 225 c 128,-1,36
 462 181 462 181 432 130 c 0,37,38
 397 71 397 71 332 32 c 1,39,40
 332 32 332 32 332 32 c 1,41,-1
 332 -182 l 1,42,-1
 253 -182 l 1,43,-1
 253 0 l 1,44,45
 227 -6 227 -6 202 -6 c 0,46,47
 135 -7 135 -7 81 42 c 0,48,49
 78 45 78 45 70.5 49.5 c 128,-1,50
 63 54 63 54 60 57 c 1,0,-1
253 586 m 1,51,52
 244 577 244 577 237 565 c 0,53,54
 212 524 212 524 232 475 c 0,55,56
 241 456 241 456 253 443 c 1,57,-1
 253 586 l 1,51,52
EndSplineSet
EndChar

StartChar: percent
Encoding: 37 37 8
Width: 691
GlyphClass: 2
Flags: W
LayerCount: 2
Fore
SplineSet
204 483 m 1,0,-1
 202 483 l 1,1,-1
 195 483 l 1,2,3
 144 487 144 487 109.5 523.5 c 128,-1,4
 75 560 75 560 75 611 c 128,-1,5
 75 662 75 662 110 699 c 128,-1,6
 145 736 145 736 195 740 c 1,7,-1
 202 740 l 1,8,-1
 204 740 l 1,9,-1
 206 740 l 2,10,11
 260 740 260 740 297.5 702.5 c 128,-1,12
 335 665 335 665 335 611 c 0,13,14
 335 558 335 558 297.5 520.5 c 128,-1,15
 260 483 260 483 206 483 c 2,16,-1
 204 483 l 1,0,-1
205 665 m 256,17,18
 201 665 201 665 193 663 c 1,19,-1
 193 664 l 1,20,21
 174 660 174 660 162.5 645.5 c 128,-1,22
 151 631 151 631 151 611 c 0,23,24
 151 592 151 592 162.5 577.5 c 128,-1,25
 174 563 174 563 193 559 c 1,26,-1
 193 560 l 1,27,28
 201 558 201 558 205 558 c 128,-1,29
 209 558 209 558 217 560 c 1,30,-1
 217 559 l 1,31,32
 236 563 236 563 247.5 577.5 c 128,-1,33
 259 592 259 592 259 611 c 0,34,35
 259 631 259 631 247.5 645.5 c 128,-1,36
 236 660 236 660 217 664 c 1,37,-1
 217 663 l 1,38,39
 209 665 209 665 205 665 c 256,17,18
509 82 m 1,40,-1
 507 82 l 1,41,-1
 500 82 l 1,42,43
 449 86 449 86 414.5 122.5 c 128,-1,44
 380 159 380 159 380 210 c 128,-1,45
 380 261 380 261 415 298 c 128,-1,46
 450 335 450 335 500 339 c 1,47,-1
 507 339 l 1,48,-1
 509 339 l 1,49,-1
 511 339 l 2,50,51
 565 339 565 339 602.5 301.5 c 128,-1,52
 640 264 640 264 640 210 c 0,53,54
 640 157 640 157 602.5 119.5 c 128,-1,55
 565 82 565 82 511 82 c 2,56,-1
 509 82 l 1,40,-1
510 264 m 256,57,58
 506 264 506 264 498 262 c 1,59,-1
 498 263 l 1,60,61
 479 259 479 259 467.5 244.5 c 128,-1,62
 456 230 456 230 456 210 c 0,63,64
 456 191 456 191 467.5 176.5 c 128,-1,65
 479 162 479 162 498 158 c 1,66,-1
 498 159 l 1,67,68
 506 157 506 157 510 157 c 128,-1,69
 514 157 514 157 522 159 c 1,70,-1
 522 158 l 1,71,72
 541 162 541 162 552.5 176.5 c 128,-1,73
 564 191 564 191 564 210 c 0,74,75
 564 230 564 230 552.5 244.5 c 128,-1,76
 541 259 541 259 522 263 c 1,77,-1
 522 262 l 1,78,79
 514 264 514 264 510 264 c 256,57,58
535 818 m 1,80,-1
 641 757 l 1,81,-1
 156 -83 l 1,82,-1
 50 -22 l 1,83,-1
 535 818 l 1,80,-1
EndSplineSet
EndChar

StartChar: ampersand
Encoding: 38 38 9
Width: 649
GlyphClass: 2
Flags: W
LayerCount: 2
Fore
SplineSet
389 810 m 1,0,-1
 386 691 l 1,1,2
 368 690 368 690 303.5 655 c 128,-1,3
 239 620 239 620 224 605 c 0,4,5
 190 571 190 571 193 521 c 1,6,-1
 216 498 l 1,7,8
 263 518 263 518 315 518 c 0,9,10
 328 518 328 518 341 517 c 1,11,-1
 341 373 l 1,12,-1
 452 262 l 1,13,14
 565 354 565 354 569 355 c 1,15,-1
 569 202 l 1,16,17
 566 202 566 202 536 178 c 1,18,-1
 600 114 l 1,19,-1
 482 -4 l 1,20,-1
 406 73 l 1,21,22
 319 3 319 3 315 3 c 0,23,24
 208 3 208 3 132.5 78 c 128,-1,25
 57 153 57 153 57 260 c 0,26,27
 57 330 57 330 92 390 c 1,28,-1
 76 406 l 1,29,30
 56 442 56 442 51 480 c 128,-1,31
 46 518 46 518 56 558.5 c 128,-1,32
 66 599 66 599 79.5 633 c 128,-1,33
 93 667 93 667 117 712 c 0,34,35
 130 736 130 736 190.5 764 c 128,-1,36
 251 792 251 792 312 806 c 128,-1,37
 373 820 373 820 389 810 c 1,0,-1
322 158 m 1,38,-1
 209 272 l 1,39,40
 208 266 208 266 208 260 c 0,41,42
 208 216 208 216 239 185 c 128,-1,43
 270 154 270 154 315 154 c 0,44,45
 316 154 316 154 322 158 c 1,38,-1
EndSplineSet
EndChar

StartChar: quotesingle
Encoding: 39 39 10
Width: 252
GlyphClass: 2
Flags: W
LayerCount: 2
Fore
SplineSet
50 532 m 1,0,-1
 50 789 l 1,1,-1
 202 789 l 1,2,-1
 202 532 l 1,3,-1
 50 532 l 1,0,-1
EndSplineSet
EndChar

StartChar: parenleft
Encoding: 40 40 11
Width: 555
GlyphClass: 2
Flags: W
LayerCount: 2
Fore
SplineSet
432 744 m 1,0,1
 332 744 332 744 243 633.5 c 128,-1,2
 154 523 154 523 154 378 c 0,3,4
 154 232 154 232 243 121.5 c 128,-1,5
 332 11 332 11 432 11 c 1,6,-1
 505 -7 l 1,7,8
 471 -14 471 -14 432 -14 c 0,9,10
 274 -14 274 -14 162 101.5 c 128,-1,11
 50 217 50 217 50 380 c 128,-1,12
 50 543 50 543 162 658 c 128,-1,13
 274 773 274 773 432 773 c 0,14,15
 471 773 471 773 505 766 c 1,16,-1
 432 744 l 1,0,1
EndSplineSet
EndChar

StartChar: parenright
Encoding: 41 41 12
Width: 555
GlyphClass: 2
Flags: W
LayerCount: 2
Fore
SplineSet
123 744 m 1,0,-1
 50 766 l 1,1,2
 84 773 84 773 123 773 c 0,3,4
 281 773 281 773 393 658 c 128,-1,5
 505 543 505 543 505 380 c 128,-1,6
 505 217 505 217 393 101.5 c 128,-1,7
 281 -14 281 -14 123 -14 c 0,8,9
 84 -14 84 -14 50 -7 c 1,10,-1
 123 11 l 1,11,12
 223 11 223 11 312 121.5 c 128,-1,13
 401 232 401 232 401 378 c 0,14,15
 401 523 401 523 312 633.5 c 128,-1,16
 223 744 223 744 123 744 c 1,0,-1
EndSplineSet
EndChar

StartChar: asterisk
Encoding: 42 42 13
Width: 644
GlyphClass: 2
Flags: W
LayerCount: 2
Fore
SplineSet
594 496 m 1,0,-1
 594 344 l 1,1,-1
 505 344 l 1,2,-1
 568 281 l 1,3,-1
 461 174 l 1,4,-1
 398 237 l 1,5,-1
 398 149 l 1,6,-1
 246 149 l 1,7,-1
 246 237 l 1,8,-1
 183 174 l 1,9,-1
 76 281 l 1,10,-1
 139 344 l 1,11,-1
 50 344 l 1,12,-1
 50 496 l 1,13,-1
 139 496 l 1,14,-1
 76 559 l 1,15,-1
 183 666 l 1,16,-1
 246 603 l 1,17,-1
 246 692 l 1,18,-1
 398 692 l 1,19,-1
 398 603 l 1,20,-1
 461 666 l 1,21,-1
 568 559 l 1,22,-1
 505 496 l 1,23,-1
 594 496 l 1,0,-1
EndSplineSet
EndChar

StartChar: plus
Encoding: 43 43 14
Width: 644
GlyphClass: 2
Flags: W
LayerCount: 2
Fore
SplineSet
594 496 m 1,0,-1
 594 344 l 1,1,-1
 50 344 l 1,2,-1
 50 496 l 1,3,-1
 594 496 l 1,0,-1
246 692 m 1,4,-1
 398 692 l 1,5,-1
 398 149 l 1,6,-1
 246 149 l 1,7,-1
 246 692 l 1,4,-1
EndSplineSet
EndChar

StartChar: comma
Encoding: 44 44 15
Width: 252
GlyphClass: 2
Flags: W
LayerCount: 2
Fore
SplineSet
50 -2 m 1,0,-1
 50 140 l 1,1,-1
 202 140 l 1,2,-1
 202 -2 l 1,3,-1
 142 -134 l 1,4,-1
 84 -130 l 1,5,-1
 93 -2 l 1,6,-1
 50 -2 l 1,0,-1
EndSplineSet
EndChar

StartChar: hyphen
Encoding: 45 45 16
Width: 644
GlyphClass: 2
Flags: W
LayerCount: 2
Fore
SplineSet
594 496 m 1,0,-1
 594 344 l 1,1,-1
 50 344 l 1,2,-1
 50 496 l 1,3,-1
 594 496 l 1,0,-1
EndSplineSet
EndChar

StartChar: period
Encoding: 46 46 17
Width: 252
GlyphClass: 2
Flags: W
LayerCount: 2
Fore
SplineSet
50 -2 m 1,0,-1
 50 140 l 1,1,-1
 202 140 l 1,2,-1
 202 -2 l 1,3,-1
 50 -2 l 1,0,-1
EndSplineSet
EndChar

StartChar: slash
Encoding: 47 47 18
Width: 691
GlyphClass: 2
Flags: W
LayerCount: 2
Fore
SplineSet
535 818 m 1,0,-1
 641 757 l 1,1,-1
 156 -83 l 1,2,-1
 50 -22 l 1,3,-1
 535 818 l 1,0,-1
EndSplineSet
EndChar

StartChar: zero
Encoding: 48 48 19
Width: 864
GlyphClass: 2
Flags: W
LayerCount: 2
Fore
SplineSet
738 380 m 256,0,1
 738 273 738 273 697 182 c 128,-1,2
 656 91 656 91 586 38.5 c 128,-1,3
 516 -14 516 -14 432.5 -14 c 128,-1,4
 349 -14 349 -14 278.5 38.5 c 128,-1,5
 208 91 208 91 167 182 c 128,-1,6
 126 273 126 273 126 380 c 256,7,8
 126 487 126 487 167 577.5 c 128,-1,9
 208 668 208 668 278.5 720.5 c 128,-1,10
 349 773 349 773 432.5 773 c 128,-1,11
 516 773 516 773 586 720.5 c 128,-1,12
 656 668 656 668 697 577.5 c 128,-1,13
 738 487 738 487 738 380 c 256,0,1
616 378 m 0,14,15
 616 475 616 475 562.5 543.5 c 128,-1,16
 509 612 509 612 432.5 612 c 128,-1,17
 356 612 356 612 302 543.5 c 128,-1,18
 248 475 248 475 248 378 c 0,19,20
 248 280 248 280 302 211.5 c 128,-1,21
 356 143 356 143 432.5 143 c 128,-1,22
 509 143 509 143 562.5 211.5 c 128,-1,23
 616 280 616 280 616 378 c 0,14,15
EndSplineSet
EndChar

StartChar: one
Encoding: 49 49 20
Width: 252
GlyphClass: 2
Flags: W
LayerCount: 2
Fore
SplineSet
50 774 m 1,0,-1
 202 774 l 1,1,-1
 202 -2 l 1,2,-1
 50 -2 l 1,3,-1
 50 774 l 1,0,-1
EndSplineSet
EndChar

StartChar: two
Encoding: 50 50 21
Width: 555
GlyphClass: 2
Flags: W
LayerCount: 2
Fore
SplineSet
130 586 m 0,0,1
 225 586 225 586 292 531 c 128,-1,2
 359 476 359 476 359 399 c 256,3,4
 359 322 359 322 293 274 c 128,-1,5
 227 226 227 226 130 226 c 0,6,7
 92 226 92 226 57 236 c 1,8,-1
 54 0 l 1,9,-1
 557 5 l 1,10,-1
 557 126 l 1,11,-1
 282 124 l 1,12,13
 386 158 386 158 449 231.5 c 128,-1,14
 512 305 512 305 512 400 c 0,15,16
 512 486 512 486 461 558.5 c 128,-1,17
 410 631 410 631 322 673 c 128,-1,18
 234 715 234 715 130 715 c 0,19,20
 93 715 93 715 57 709 c 1,21,-1
 57 576 l 1,22,23
 92 586 92 586 130 586 c 0,0,1
EndSplineSet
EndChar

StartChar: three
Encoding: 51 51 22
Width: 435
GlyphClass: 2
Flags: W
LayerCount: 2
Fore
SplineSet
50 -5 m 1,0,-1
 50 119 l 1,1,2
 63 116 63 116 76 116 c 0,3,4
 142 116 142 116 188 141 c 128,-1,5
 234 166 234 166 234 202 c 0,6,7
 234 236 234 236 207 260 c 128,-1,8
 180 284 180 284 140 288 c 0,9,10
 133 288 133 288 127 288 c 128,-1,11
 121 288 121 288 115 288 c 0,12,13
 108 288 108 288 101 286 c 1,14,-1
 101 289 l 1,15,-1
 101 410 l 1,16,-1
 101 413 l 1,17,18
 108 411 108 411 115 411 c 0,19,20
 121 411 121 411 127 411 c 128,-1,21
 133 411 133 411 140 411 c 0,22,23
 180 414 180 414 207 438.5 c 128,-1,24
 234 463 234 463 234 496 c 0,25,26
 234 533 234 533 190 558 c 128,-1,27
 146 583 146 583 82 583 c 0,28,29
 69 583 69 583 56 580 c 1,30,-1
 56 704 l 1,31,32
 69 705 69 705 82 705 c 0,33,34
 208 705 208 705 296.5 644 c 128,-1,35
 385 583 385 583 385 496 c 0,36,37
 385 410 385 410 310 349 c 1,38,39
 385 288 385 288 385 202 c 128,-1,40
 385 116 385 116 294.5 55 c 128,-1,41
 204 -6 204 -6 76 -6 c 0,42,43
 63 -6 63 -6 50 -5 c 1,0,-1
EndSplineSet
EndChar

StartChar: four
Encoding: 52 52 23
Width: 752
GlyphClass: 2
Flags: W
LayerCount: 2
Fore
SplineSet
394 0 m 1,0,-1
 394 192 l 1,1,-1
 393 191 l 1,2,-1
 58 191 l 1,3,-1
 380 774 l 1,4,-1
 523 774 l 1,5,-1
 523 0 l 1,6,-1
 394 0 l 1,0,-1
386 341 m 1,7,-1
 386 521 l 1,8,-1
 288 344 l 1,9,-1
 386 341 l 1,7,-1
EndSplineSet
EndChar

StartChar: five
Encoding: 53 53 24
Width: 384
GlyphClass: 2
Flags: W
LayerCount: 2
Fore
SplineSet
50 4 m 1,0,-1
 50 157 l 1,1,2
 62 154 62 154 76 154 c 0,3,4
 121 154 121 154 152 185 c 128,-1,5
 183 216 183 216 183 260 c 0,6,7
 183 305 183 305 152 336 c 128,-1,8
 121 367 121 367 76 367 c 0,9,10
 62 367 62 367 50 364 c 1,11,-1
 50 397 l 1,12,-1
 50 517 l 1,13,-1
 50 773 l 1,14,-1
 51 773 l 1,15,-1
 51 774 l 1,16,-1
 368 774 l 1,17,-1
 367 622 l 1,18,-1
 202 622 l 1,19,-1
 202 485 l 1,20,21
 262 451 262 451 298 391.5 c 128,-1,22
 334 332 334 332 334 260 c 0,23,24
 334 153 334 153 258.5 78 c 128,-1,25
 183 3 183 3 76 3 c 0,26,27
 59 3 59 3 50 4 c 1,0,-1
EndSplineSet
EndChar

StartChar: six
Encoding: 54 54 25
Width: 729
GlyphClass: 2
Flags: W
LayerCount: 2
Fore
SplineSet
432 612 m 0,0,1
 347 612 347 612 283 556 c 128,-1,2
 219 500 219 500 206 416 c 1,3,4
 276 492 276 492 379 499 c 0,5,6
 387 500 387 500 393 500 c 0,7,8
 396 500 396 500 397 500 c 2,9,10
 397 500 397 500 398 500 c 256,11,12
 399 500 399 500 401 500 c 0,13,14
 492 500 492 500 562.5 443.5 c 128,-1,15
 633 387 633 387 653 300 c 0,16,17
 659 272 659 272 659 242 c 0,18,19
 659 202 659 202 647 164 c 0,20,21
 617 70 617 70 531 20 c 1,22,23
 482 -14 482 -14 432 -14 c 0,24,25
 428 -14 428 -14 425 -14 c 0,26,27
 413 -15 413 -15 401 -15 c 0,28,29
 400 -15 400 -15 399 -15 c 128,-1,30
 398 -15 398 -15 398 -15 c 257,31,32
 398 -15 398 -15 397 -15 c 0,33,34
 395 -15 395 -15 393 -15 c 0,35,36
 385 -15 385 -15 379 -14 c 0,37,38
 299 -8 299 -8 237 41 c 1,39,40
 152 93 152 93 101 183 c 128,-1,41
 50 273 50 273 50 380 c 0,42,43
 50 543 50 543 162 658 c 128,-1,44
 274 773 274 773 432 773 c 0,45,46
 515 773 515 773 551 766 c 1,47,-1
 551 600 l 1,48,49
 536 605 536 605 496 608.5 c 128,-1,50
 456 612 456 612 432 612 c 0,0,1
383 367 m 0,51,52
 372 367 372 367 359 364 c 1,53,-1
 359 365 l 1,54,55
 322 357 322 357 298 328 c 128,-1,56
 274 299 274 299 274 260 c 0,57,58
 274 206 274 206 318 174 c 0,59,60
 333 165 333 165 350 158 c 0,61,62
 355 157 355 157 359 156 c 1,63,-1
 359 157 l 1,64,65
 370 154 370 154 383 154 c 0,66,67
 395 154 395 154 407 157 c 1,68,-1
 407 156 l 1,69,70
 444 164 444 164 468 193 c 128,-1,71
 492 222 492 222 492 260 c 0,72,73
 492 299 492 299 468 328 c 128,-1,74
 444 357 444 357 407 365 c 1,75,-1
 407 364 l 1,76,77
 395 367 395 367 383 367 c 0,51,52
EndSplineSet
EndChar

StartChar: seven
Encoding: 55 55 26
Width: 610
GlyphClass: 2
Flags: W
LayerCount: 2
Fore
SplineSet
213 0 m 1,0,-1
 51 0 l 1,1,-1
 389 610 l 1,2,-1
 50 610 l 1,3,-1
 50 762 l 1,4,-1
 560 762 l 1,5,-1
 560 610 l 1,6,-1
 213 0 l 1,0,-1
EndSplineSet
EndChar

StartChar: eight
Encoding: 56 56 27
Width: 616
GlyphClass: 2
Flags: W
LayerCount: 2
Fore
SplineSet
310 367 m 0,0,1
 297 367 297 367 286 364 c 1,2,-1
 286 365 l 1,3,4
 249 357 249 357 225 328 c 128,-1,5
 201 299 201 299 201 260 c 0,6,7
 201 222 201 222 225 193 c 128,-1,8
 249 164 249 164 286 156 c 1,9,-1
 286 157 l 1,10,11
 297 154 297 154 310 154 c 0,12,13
 322 154 322 154 334 157 c 1,14,-1
 334 156 l 1,15,16
 371 164 371 164 395 193 c 128,-1,17
 419 222 419 222 419 260 c 0,18,19
 419 299 419 299 395 328 c 128,-1,20
 371 357 371 357 334 365 c 1,21,-1
 334 364 l 1,22,23
 322 367 322 367 310 367 c 0,0,1
310 672 m 0,24,25
 297 672 297 672 286 669 c 1,26,-1
 286 670 l 1,27,28
 249 662 249 662 225 633 c 128,-1,29
 201 604 201 604 201 565 c 0,30,31
 201 527 201 527 225 498 c 128,-1,32
 249 469 249 469 286 461 c 1,33,-1
 286 462 l 1,34,35
 297 459 297 459 310 459 c 0,36,37
 322 459 322 459 334 462 c 1,38,-1
 334 461 l 1,39,40
 371 469 371 469 395 498 c 128,-1,41
 419 527 419 527 419 565 c 0,42,43
 419 604 419 604 395 633 c 128,-1,44
 371 662 371 662 334 670 c 1,45,-1
 334 669 l 1,46,47
 322 672 322 672 310 672 c 0,24,25
309 3 m 257,48,49
 309 3 309 3 308 3 c 0,50,51
 306 3 306 3 304 3 c 0,52,53
 296 3 296 3 290 4 c 0,54,55
 189 10 189 10 119.5 84 c 128,-1,56
 50 158 50 158 50 260 c 0,57,58
 50 345 50 345 100 413 c 1,59,60
 50 481 50 481 50 565 c 0,61,62
 50 667 50 667 119.5 741.5 c 128,-1,63
 189 816 189 816 290 822 c 0,64,65
 296 823 296 823 304 823 c 0,66,67
 306 823 306 823 308 823 c 2,68,69
 308 823 308 823 309 823 c 256,70,71
 310 823 310 823 312 823 c 0,72,73
 419 823 419 823 494.5 747.5 c 128,-1,74
 570 672 570 672 570 565 c 0,75,76
 570 481 570 481 520 413 c 1,77,78
 570 345 570 345 570 260 c 0,79,80
 570 153 570 153 494.5 78 c 128,-1,81
 419 3 419 3 312 3 c 0,82,83
 311 3 311 3 310 3 c 128,-1,84
 309 3 309 3 309 3 c 257,48,49
EndSplineSet
EndChar

StartChar: nine
Encoding: 57 57 28
Width: 729
GlyphClass: 2
Flags: W
LayerCount: 2
Fore
SplineSet
277 146 m 0,0,1
 362 146 362 146 426 202 c 128,-1,2
 490 258 490 258 503 342 c 1,3,4
 433 266 433 266 330 259 c 0,5,6
 322 258 322 258 316 258 c 0,7,8
 313 258 313 258 312 258 c 2,9,10
 312 258 312 258 311 258 c 256,11,12
 310 258 310 258 308 258 c 0,13,14
 217 258 217 258 146.5 314.5 c 128,-1,15
 76 371 76 371 56 458 c 0,16,17
 50 486 50 486 50 516 c 0,18,19
 50 556 50 556 62 594 c 0,20,21
 92 688 92 688 178 738 c 1,22,23
 227 772 227 772 277 772 c 0,24,25
 281 772 281 772 284 772 c 0,26,27
 296 773 296 773 308 773 c 0,28,29
 309 773 309 773 310 773 c 128,-1,30
 311 773 311 773 311 773 c 257,31,32
 311 773 311 773 312 773 c 0,33,34
 314 773 314 773 316 773 c 0,35,36
 324 773 324 773 330 772 c 0,37,38
 410 766 410 766 472 717 c 1,39,40
 557 665 557 665 608 575 c 128,-1,41
 659 485 659 485 659 378 c 0,42,43
 659 215 659 215 547 100 c 128,-1,44
 435 -15 435 -15 277 -15 c 0,45,46
 194 -15 194 -15 158 -8 c 1,47,-1
 158 158 l 1,48,49
 173 153 173 153 213 149.5 c 128,-1,50
 253 146 253 146 277 146 c 0,0,1
326 391 m 0,51,52
 337 391 337 391 350 394 c 1,53,-1
 350 393 l 1,54,55
 387 401 387 401 411 430 c 128,-1,56
 435 459 435 459 435 498 c 0,57,58
 435 552 435 552 391 584 c 0,59,60
 376 593 376 593 359 600 c 0,61,62
 354 601 354 601 350 602 c 1,63,-1
 350 601 l 1,64,65
 339 604 339 604 326 604 c 0,66,67
 314 604 314 604 302 601 c 1,68,-1
 302 602 l 1,69,70
 265 594 265 594 241 565 c 128,-1,71
 217 536 217 536 217 498 c 0,72,73
 217 459 217 459 241 430 c 128,-1,74
 265 401 265 401 302 393 c 1,75,-1
 302 394 l 1,76,77
 314 391 314 391 326 391 c 0,51,52
EndSplineSet
EndChar

StartChar: colon
Encoding: 58 58 29
Width: 252
GlyphClass: 2
Flags: W
LayerCount: 2
Fore
SplineSet
50 398 m 1,0,-1
 50 540 l 1,1,-1
 202 540 l 1,2,-1
 202 398 l 1,3,-1
 50 398 l 1,0,-1
50 -2 m 1,4,-1
 50 140 l 1,5,-1
 202 140 l 1,6,-1
 202 -2 l 1,7,-1
 50 -2 l 1,4,-1
EndSplineSet
EndChar

StartChar: semicolon
Encoding: 59 59 30
Width: 252
GlyphClass: 2
Flags: W
LayerCount: 2
Fore
SplineSet
50 -2 m 1,0,-1
 50 140 l 1,1,-1
 202 140 l 1,2,-1
 202 -2 l 1,3,-1
 142 -134 l 1,4,-1
 84 -130 l 1,5,-1
 93 -2 l 1,6,-1
 50 -2 l 1,0,-1
50 398 m 1,7,-1
 50 540 l 1,8,-1
 202 540 l 1,9,-1
 202 398 l 1,10,-1
 50 398 l 1,7,-1
EndSplineSet
EndChar

StartChar: less
Encoding: 60 60 31
Width: 644
GlyphClass: 2
Flags: W
LayerCount: 2
Fore
SplineSet
594 546 m 1,0,-1
 594 394 l 1,1,-1
 380 338 l 1,2,-1
 594 296 l 1,3,-1
 594 144 l 1,4,-1
 50 250 l 1,5,-1
 50 251 l 1,6,-1
 50 402 l 1,7,-1
 50 403 l 1,8,-1
 594 546 l 1,0,-1
EndSplineSet
EndChar

StartChar: equal
Encoding: 61 61 32
Width: 644
GlyphClass: 2
Flags: W
LayerCount: 2
Fore
SplineSet
594 296 m 1,0,-1
 594 144 l 1,1,-1
 50 144 l 1,2,-1
 50 296 l 1,3,-1
 594 296 l 1,0,-1
594 546 m 1,4,-1
 594 394 l 1,5,-1
 50 394 l 1,6,-1
 50 546 l 1,7,-1
 594 546 l 1,4,-1
EndSplineSet
EndChar

StartChar: greater
Encoding: 62 62 33
Width: 644
GlyphClass: 2
Flags: W
LayerCount: 2
Fore
SplineSet
50 546 m 1,0,-1
 594 403 l 1,1,-1
 594 402 l 1,2,-1
 594 251 l 1,3,-1
 594 250 l 1,4,-1
 50 144 l 1,5,-1
 50 296 l 1,6,-1
 264 338 l 1,7,-1
 50 394 l 1,8,-1
 50 546 l 1,0,-1
EndSplineSet
EndChar

StartChar: question
Encoding: 63 63 34
Width: 384
GlyphClass: 2
Flags: W
LayerCount: 2
Fore
SplineSet
50 -2 m 1,0,-1
 50 140 l 1,1,-1
 202 140 l 1,2,-1
 202 -2 l 1,3,-1
 50 -2 l 1,0,-1
50 828 m 1,4,5
 59 829 59 829 76 829 c 0,6,7
 183 829 183 829 258.5 754 c 128,-1,8
 334 679 334 679 334 572 c 0,9,10
 334 500 334 500 298 440 c 128,-1,11
 262 380 262 380 202 347 c 1,12,-1
 202 230 l 1,13,-1
 50 230 l 1,14,-1
 50 315 l 1,15,-1
 50 440 l 1,16,-1
 50 468 l 1,17,18
 62 465 62 465 76 465 c 0,19,20
 121 465 121 465 152 496 c 128,-1,21
 183 527 183 527 183 572 c 0,22,23
 183 616 183 616 152 647 c 128,-1,24
 121 678 121 678 76 678 c 0,25,26
 62 678 62 678 50 675 c 1,27,-1
 50 828 l 1,4,5
EndSplineSet
EndChar

StartChar: at
Encoding: 64 64 35
Width: 864
GlyphClass: 2
Flags: W
LayerCount: 2
Fore
SplineSet
524 166 m 1024,0,-1
485 420 m 1,1,2
 481 421 481 421 473 421 c 0,3,4
 450 421 450 421 434.5 405.5 c 128,-1,5
 419 390 419 390 419 368 c 128,-1,6
 419 346 419 346 434.5 330 c 128,-1,7
 450 314 450 314 473 314 c 0,8,9
 477 314 477 314 485 316 c 1,10,-1
 485 420 l 1,1,2
561 236 m 1024,11,-1
487 228 m 2,12,-1
 473 239 l 1,13,14
 419 239 419 239 381 276.5 c 128,-1,15
 343 314 343 314 343 368 c 0,16,17
 343 421 343 421 381 456.5 c 128,-1,18
 419 492 419 492 473 492 c 2,19,-1
 485 492 l 1,20,-1
 561 492 l 1,21,-1
 568 318 l 2,22,23
 570 306 570 306 583.5 292 c 128,-1,24
 597 278 597 278 613.5 270.5 c 128,-1,25
 630 263 630 263 644.5 276 c 128,-1,26
 659 289 659 289 662 326 c 0,27,28
 662 327 662 327 660 334 c 128,-1,29
 658 341 658 341 658 342 c 0,30,31
 667 396 667 396 651 448.5 c 128,-1,32
 635 501 635 501 595 541 c 0,33,34
 527 608 527 608 431.5 606.5 c 128,-1,35
 336 605 336 605 268 537 c 0,36,37
 199 468 199 468 198 372.5 c 128,-1,38
 197 277 197 277 264 209 c 0,39,40
 316 157 316 157 388 146 c 128,-1,41
 460 135 460 135 524 166 c 0,42,43
 535 171 535 171 563 143 c 128,-1,44
 591 115 591 115 614 84 c 2,45,-1
 637 54 l 1,46,47
 524 -22 524 -22 387 -10.5 c 128,-1,48
 250 1 250 1 153 98 c 0,49,50
 41 210 41 210 43.5 371 c 128,-1,51
 46 532 46 532 161 647 c 128,-1,52
 276 762 276 762 436.5 764.5 c 128,-1,53
 597 767 597 767 709 655 c 0,54,55
 793 571 793 571 814 448 c 128,-1,56
 835 325 835 325 787 220 c 1,57,58
 765 207 765 207 743 199 c 128,-1,59
 721 191 721 191 696.5 189.5 c 128,-1,60
 672 188 672 188 655 187.5 c 128,-1,61
 638 187 638 187 611 193.5 c 128,-1,62
 584 200 584 200 571.5 203 c 128,-1,63
 559 206 559 206 527.5 215.5 c 128,-1,64
 496 225 496 225 487 228 c 2,12,-1
EndSplineSet
EndChar

StartChar: A
Encoding: 65 65 36
Width: 752
GlyphClass: 2
Flags: W
LayerCount: 2
Fore
SplineSet
550 0 m 1,0,-1
 461 228 l 1,1,-1
 461 227 l 1,2,-1
 261 227 l 1,3,-1
 202 0 l 1,4,-1
 50 0 l 1,5,-1
 250 769 l 1,6,-1
 402 769 l 1,7,-1
 702 0 l 1,8,-1
 550 0 l 1,0,-1
407 367 m 1,9,-1
 341 535 l 1,10,-1
 297 367 l 1,11,-1
 407 367 l 1,9,-1
EndSplineSet
EndChar

StartChar: B
Encoding: 66 66 37
Width: 512
GlyphClass: 2
Flags: W
LayerCount: 2
Fore
SplineSet
202 780 m 2,0,1
 208 780 208 780 220 780 c 0,2,3
 327 780 327 780 402.5 704.5 c 128,-1,4
 478 629 478 629 478 522 c 0,5,6
 478 499 478 499 464 477 c 128,-1,7
 450 455 450 455 425.5 429 c 128,-1,8
 401 403 401 403 395 396 c 0,9,10
 397 394 397 394 427.5 362 c 128,-1,11
 458 330 458 330 471 307.5 c 128,-1,12
 484 285 484 285 484 260 c 0,13,14
 484 153 484 153 408.5 78 c 128,-1,15
 333 3 333 3 226 3 c 0,16,17
 210 3 210 3 202 4 c 2,18,-1
 50 4 l 1,19,-1
 50 780 l 1,20,-1
 202 780 l 2,0,1
202 136 m 1,21,22
 214 133 214 133 226 133 c 0,23,24
 271 133 271 133 302 164 c 128,-1,25
 333 195 333 195 333 239 c 0,26,27
 333 284 333 284 302 315 c 128,-1,28
 271 346 271 346 226 346 c 0,29,30
 214 346 214 346 202 343 c 1,31,-1
 202 136 l 1,21,22
202 454 m 1,32,33
 214 451 214 451 226 451 c 0,34,35
 271 451 271 451 302 482 c 128,-1,36
 333 513 333 513 333 557 c 0,37,38
 333 602 333 602 302 633 c 128,-1,39
 271 664 271 664 226 664 c 0,40,41
 214 664 214 664 202 661 c 1,42,-1
 202 454 l 1,32,33
EndSplineSet
EndChar

StartChar: C
Encoding: 67 67 38
Width: 555
GlyphClass: 2
Flags: W
LayerCount: 2
Fore
SplineSet
432 612 m 0,0,1
 337 612 337 612 270 543.5 c 128,-1,2
 203 475 203 475 203 378 c 0,3,4
 203 280 203 280 270 211.5 c 128,-1,5
 337 143 337 143 432 143 c 0,6,7
 470 143 470 143 505 155 c 1,8,-1
 505 -7 l 1,9,10
 469 -14 469 -14 432 -14 c 0,11,12
 274 -14 274 -14 162 101.5 c 128,-1,13
 50 217 50 217 50 380 c 128,-1,14
 50 543 50 543 162 658 c 128,-1,15
 274 773 274 773 432 773 c 0,16,17
 469 773 469 773 505 766 c 1,18,-1
 505 600 l 1,19,20
 470 612 470 612 432 612 c 0,0,1
EndSplineSet
EndChar

StartChar: D
Encoding: 68 68 39
Width: 630
GlyphClass: 2
Flags: W
LayerCount: 2
Fore
SplineSet
50 768 m 1,0,1
 65 763 65 763 124 768 c 128,-1,2
 183 773 183 773 198 773 c 0,3,4
 356 773 356 773 468 658 c 128,-1,5
 580 543 580 543 580 380 c 0,6,7
 580 273 580 273 529.5 183 c 128,-1,8
 479 93 479 93 392 40 c 128,-1,9
 305 -13 305 -13 202 -14 c 2,10,-1
 50 -14 l 1,11,-1
 50 768 l 1,0,1
202 143 m 1,12,13
 296 145 296 145 361.5 213.5 c 128,-1,14
 427 282 427 282 427 378 c 256,15,16
 427 474 427 474 361.5 542 c 128,-1,17
 296 610 296 610 202 612 c 1,18,-1
 202 143 l 1,12,13
EndSplineSet
EndChar

StartChar: E
Encoding: 69 69 40
Width: 668
GlyphClass: 2
Flags: W
LayerCount: 2
Fore
SplineSet
509 485 m 1,0,-1
 510 333 l 1,1,-1
 202 333 l 1,2,-1
 202 149 l 1,3,-1
 617 149 l 1,4,-1
 618 -3 l 1,5,-1
 51 -3 l 1,6,-1
 51 -2 l 1,7,-1
 50 -2 l 1,8,-1
 50 774 l 1,9,-1
 50 778 l 1,10,-1
 617 778 l 1,11,-1
 618 626 l 1,12,-1
 202 626 l 1,13,-1
 202 485 l 1,14,-1
 509 485 l 1,0,-1
EndSplineSet
EndChar

StartChar: F
Encoding: 70 70 41
Width: 668
GlyphClass: 2
Flags: W
LayerCount: 2
Fore
SplineSet
509 485 m 1,0,-1
 510 333 l 1,1,-1
 202 333 l 1,2,-1
 202 -2 l 1,3,-1
 50 -2 l 1,4,-1
 50 774 l 1,5,-1
 50 778 l 1,6,-1
 617 778 l 1,7,-1
 618 626 l 1,8,-1
 202 626 l 1,9,-1
 202 485 l 1,10,-1
 509 485 l 1,0,-1
EndSplineSet
EndChar

StartChar: G
Encoding: 71 71 42
Width: 651
GlyphClass: 2
Flags: W
LayerCount: 2
Fore
SplineSet
432 612 m 0,0,1
 337 612 337 612 270 543.5 c 128,-1,2
 203 475 203 475 203 378 c 0,3,4
 203 280 203 280 270 211.5 c 128,-1,5
 337 143 337 143 432 143 c 0,6,7
 441 143 441 143 449 144 c 1,8,-1
 449 313 l 1,9,-1
 601 313 l 1,10,-1
 601 -14 l 1,11,-1
 449 -14 l 2,12,13
 441 -14 441 -14 432 -14 c 0,14,15
 274 -14 274 -14 162 101.5 c 128,-1,16
 50 217 50 217 50 380 c 128,-1,17
 50 543 50 543 162 658 c 128,-1,18
 274 773 274 773 432 773 c 0,19,20
 469 773 469 773 505 766 c 1,21,-1
 505 600 l 1,22,23
 470 612 470 612 432 612 c 0,0,1
EndSplineSet
EndChar

StartChar: H
Encoding: 72 72 43
Width: 652
GlyphClass: 2
Flags: W
LayerCount: 2
Fore
SplineSet
450 774 m 1,0,-1
 602 774 l 1,1,-1
 602 -2 l 1,2,-1
 450 -2 l 1,3,-1
 450 333 l 1,4,-1
 202 333 l 1,5,-1
 202 -2 l 1,6,-1
 50 -2 l 1,7,-1
 50 774 l 1,8,-1
 202 774 l 1,9,-1
 202 485 l 1,10,-1
 450 485 l 1,11,-1
 450 774 l 1,0,-1
EndSplineSet
EndChar

StartChar: I
Encoding: 73 73 44
Width: 252
GlyphClass: 2
Flags: W
LayerCount: 2
Fore
SplineSet
50 774 m 1,0,-1
 202 774 l 1,1,-1
 202 -2 l 1,2,-1
 50 -2 l 1,3,-1
 50 774 l 1,0,-1
EndSplineSet
EndChar

StartChar: J
Encoding: 74 74 45
Width: 419
GlyphClass: 2
Flags: W
LayerCount: 2
Fore
SplineSet
50 6 m 1,0,-1
 50 174 l 1,1,2
 81 148 81 148 121 148 c 0,3,4
 170 148 170 148 202 185 c 1,5,-1
 202 761 l 1,6,-1
 369 761 l 1,7,-1
 366 184 l 1,8,9
 342 101 342 101 275 49 c 128,-1,10
 208 -3 208 -3 121 -3 c 0,11,12
 84 -3 84 -3 50 6 c 1,0,-1
EndSplineSet
EndChar

StartChar: K
Encoding: 75 75 46
Width: 703
GlyphClass: 2
Flags: W
LayerCount: 2
Fore
SplineSet
50 774 m 1,0,-1
 202 774 l 1,1,-1
 202 433 l 1,2,-1
 447 770 l 1,3,-1
 633 768 l 1,4,-1
 372 387 l 1,5,-1
 703 -3 l 1,6,-1
 511 -2 l 1,7,-1
 259 302 l 1,8,-1
 202 219 l 1,9,-1
 202 -2 l 1,10,-1
 50 -2 l 1,11,-1
 50 774 l 1,0,-1
EndSplineSet
EndChar

StartChar: L
Encoding: 76 76 47
Width: 718
GlyphClass: 2
Flags: W
LayerCount: 2
Fore
SplineSet
50 774 m 1,0,-1
 202 774 l 1,1,-1
 202 149 l 1,2,-1
 667 149 l 1,3,-1
 668 -3 l 1,4,-1
 51 -3 l 1,5,-1
 51 -2 l 1,6,-1
 50 -2 l 1,7,-1
 50 774 l 1,0,-1
EndSplineSet
EndChar

StartChar: M
Encoding: 77 77 48
Width: 1052
GlyphClass: 2
Flags: W
LayerCount: 2
Fore
SplineSet
50 768 m 1,0,-1
 202 768 l 1,1,-1
 526 146 l 1,2,-1
 850 768 l 1,3,-1
 1002 768 l 1,4,-1
 1002 -2 l 1,5,-1
 850 -2 l 1,6,-1
 850 476 l 1,7,-1
 602 0 l 1,8,-1
 450 0 l 1,9,-1
 202 476 l 1,10,-1
 202 -2 l 1,11,-1
 50 -2 l 1,12,-1
 50 768 l 1,0,-1
EndSplineSet
EndChar

StartChar: N
Encoding: 78 78 49
Width: 852
GlyphClass: 2
Flags: W
LayerCount: 2
Fore
SplineSet
50 774 m 1,0,-1
 202 774 l 1,1,-1
 650 251 l 1,2,-1
 650 774 l 1,3,-1
 802 774 l 1,4,-1
 802 -2 l 1,5,-1
 650 -2 l 1,6,-1
 202 523 l 1,7,-1
 202 -2 l 1,8,-1
 50 -2 l 1,9,-1
 50 774 l 1,0,-1
EndSplineSet
EndChar

StartChar: O
Encoding: 79 79 50
Width: 864
GlyphClass: 2
Flags: W
LayerCount: 2
Fore
SplineSet
814 380 m 256,0,1
 814 217 814 217 702 101.5 c 128,-1,2
 590 -14 590 -14 432 -14 c 128,-1,3
 274 -14 274 -14 162 101.5 c 128,-1,4
 50 217 50 217 50 380 c 128,-1,5
 50 543 50 543 162 658 c 128,-1,6
 274 773 274 773 432 773 c 128,-1,7
 590 773 590 773 702 658 c 128,-1,8
 814 543 814 543 814 380 c 256,0,1
661 378 m 0,9,10
 661 475 661 475 594 543.5 c 128,-1,11
 527 612 527 612 432 612 c 128,-1,12
 337 612 337 612 270 543.5 c 128,-1,13
 203 475 203 475 203 378 c 0,14,15
 203 280 203 280 270 211.5 c 128,-1,16
 337 143 337 143 432 143 c 128,-1,17
 527 143 527 143 594 211.5 c 128,-1,18
 661 280 661 280 661 378 c 0,9,10
EndSplineSet
EndChar

StartChar: P
Encoding: 80 80 51
Width: 534
GlyphClass: 2
Flags: W
LayerCount: 2
Fore
SplineSet
202 3 m 1,0,-1
 50 3 l 1,1,-1
 50 779 l 1,2,-1
 202 779 l 2,3,4
 210 780 210 780 226 780 c 0,5,6
 333 780 333 780 408.5 705 c 128,-1,7
 484 630 484 630 484 523 c 128,-1,8
 484 416 484 416 408.5 340.5 c 128,-1,9
 333 265 333 265 226 265 c 0,10,11
 210 265 210 265 202 266 c 1,12,-1
 202 3 l 1,0,-1
202 626 m 1,13,-1
 202 419 l 1,14,15
 214 416 214 416 226 416 c 0,16,17
 271 416 271 416 302 447 c 128,-1,18
 333 478 333 478 333 523 c 0,19,20
 333 567 333 567 302 598 c 128,-1,21
 271 629 271 629 226 629 c 0,22,23
 214 629 214 629 202 626 c 1,13,-1
EndSplineSet
EndChar

StartChar: Q
Encoding: 81 81 52
Width: 864
GlyphClass: 2
Flags: W
LayerCount: 2
Fore
SplineSet
661 378 m 0,0,1
 661 475 661 475 594 543.5 c 128,-1,2
 527 612 527 612 432 612 c 128,-1,3
 337 612 337 612 270 543.5 c 128,-1,4
 203 475 203 475 203 378 c 0,5,6
 203 280 203 280 270 211.5 c 128,-1,7
 337 143 337 143 432 143 c 128,-1,8
 527 143 527 143 594 211.5 c 128,-1,9
 661 280 661 280 661 378 c 0,0,1
814 380 m 0,10,11
 814 293 814 293 780 216.5 c 128,-1,12
 746 140 746 140 685 85 c 1,13,-1
 822 -52 l 1,14,-1
 684 -191 l 1,15,-1
 501 -8 l 1,16,17
 467 -14 467 -14 432 -14 c 0,18,19
 274 -14 274 -14 162 101.5 c 128,-1,20
 50 217 50 217 50 380 c 128,-1,21
 50 543 50 543 162 658 c 128,-1,22
 274 773 274 773 432 773 c 128,-1,23
 590 773 590 773 702 658 c 128,-1,24
 814 543 814 543 814 380 c 0,10,11
EndSplineSet
EndChar

StartChar: R
Encoding: 82 82 53
Width: 512
GlyphClass: 2
Flags: W
LayerCount: 2
Fore
SplineSet
202 626 m 1,0,-1
 202 419 l 1,1,2
 214 416 214 416 226 416 c 0,3,4
 271 416 271 416 302 447 c 128,-1,5
 333 478 333 478 333 523 c 0,6,7
 333 567 333 567 302 598 c 128,-1,8
 271 629 271 629 226 629 c 0,9,10
 214 629 214 629 202 626 c 1,0,-1
202 3 m 1,11,-1
 50 3 l 1,12,-1
 50 779 l 1,13,-1
 202 779 l 2,14,15
 210 780 210 780 226 780 c 0,16,17
 333 780 333 780 408.5 705 c 128,-1,18
 484 630 484 630 484 523 c 0,19,20
 484 440 484 440 436.5 373.5 c 128,-1,21
 389 307 389 307 313 280 c 1,22,-1
 512 -3 l 1,23,-1
 372 -3 l 1,24,-1
 207 266 l 2,25,26
 204 266 204 266 202 266 c 1,27,-1
 202 3 l 1,11,-1
EndSplineSet
EndChar

StartChar: S
Encoding: 83 83 54
Width: 512
GlyphClass: 2
Flags: W
LayerCount: 2
Fore
SplineSet
55 57 m 1,0,-1
 130 182 l 1,1,2
 142 172 142 172 152 167 c 0,3,4
 190 145 190 145 232 155.5 c 128,-1,5
 274 166 274 166 297 202 c 0,6,7
 319 241 319 241 294.5 274.5 c 128,-1,8
 270 308 270 308 227 315 c 1,9,10
 160 351 160 351 119.5 398 c 128,-1,11
 79 445 79 445 68.5 507.5 c 128,-1,12
 58 570 58 570 101 639 c 0,13,14
 153 726 153 726 256 751.5 c 128,-1,15
 359 777 359 777 453 727 c 0,16,17
 456 724 456 724 463.5 719.5 c 128,-1,18
 471 715 471 715 474 712 c 1,19,-1
 399 587 l 1,20,21
 387 597 387 597 377 602 c 0,22,23
 339 623 339 623 296.5 612.5 c 128,-1,24
 254 602 254 602 232 565 c 0,25,26
 207 524 207 524 227.5 475 c 128,-1,27
 248 426 248 426 296 418 c 1,28,29
 345 392 345 392 378.5 365.5 c 128,-1,30
 412 339 412 339 436.5 303.5 c 128,-1,31
 461 268 461 268 459.5 224 c 128,-1,32
 458 180 458 180 427 130 c 0,33,34
 375 42 375 42 272.5 16.5 c 128,-1,35
 170 -9 170 -9 76 42 c 0,36,37
 73 45 73 45 65.5 49.5 c 128,-1,38
 58 54 58 54 55 57 c 1,0,-1
EndSplineSet
EndChar

StartChar: T
Encoding: 84 84 55
Width: 676
GlyphClass: 2
Flags: W
LayerCount: 2
Fore
SplineSet
265 766 m 1,0,-1
 417 766 l 1,1,-1
 417 -2 l 1,2,-1
 265 -2 l 1,3,-1
 265 766 l 1,0,-1
53 614 m 1,4,-1
 53 766 l 1,5,-1
 629 766 l 1,6,-1
 629 614 l 1,7,-1
 53 614 l 1,4,-1
EndSplineSet
EndChar

StartChar: U
Encoding: 85 85 56
Width: 669
GlyphClass: 2
Flags: W
LayerCount: 2
Fore
SplineSet
616 184 m 1,0,1
 600 126 600 126 555.5 84.5 c 128,-1,2
 511 43 511 43 455 23.5 c 128,-1,3
 399 4 399 4 335 3.5 c 128,-1,4
 271 3 271 3 214.5 22 c 128,-1,5
 158 41 158 41 114 83 c 128,-1,6
 70 125 70 125 53 184 c 1,7,-1
 50 761 l 1,8,-1
 217 761 l 1,9,-1
 217 185 l 1,10,11
 246 152 246 152 335 151.5 c 128,-1,12
 424 151 424 151 452 185 c 1,13,-1
 452 761 l 1,14,-1
 619 761 l 1,15,-1
 616 184 l 1,0,1
EndSplineSet
EndChar

StartChar: V
Encoding: 86 86 57
Width: 652
GlyphClass: 2
Flags: W
LayerCount: 2
Fore
SplineSet
50 769 m 1,0,-1
 202 769 l 1,1,-1
 326 292 l 1,2,-1
 450 769 l 1,3,-1
 602 769 l 1,4,-1
 402 0 l 1,5,-1
 250 0 l 1,6,-1
 50 769 l 1,0,-1
EndSplineSet
EndChar

StartChar: W
Encoding: 87 87 58
Width: 1000
GlyphClass: 2
Flags: W
LayerCount: 2
Fore
SplineSet
50 769 m 1,0,-1
 202 769 l 1,1,-1
 326 292 l 1,2,-1
 450 769 l 1,3,-1
 602 769 l 1,4,-1
 402 0 l 1,5,-1
 250 0 l 1,6,-1
 50 769 l 1,0,-1
451 769 m 1,7,-1
 603 769 l 1,8,-1
 727 292 l 1,9,-1
 851 769 l 1,10,-1
 1003 769 l 1,11,-1
 803 0 l 1,12,-1
 651 0 l 1,13,-1
 451 769 l 1,7,-1
EndSplineSet
EndChar

StartChar: X
Encoding: 88 88 59
Width: 724
GlyphClass: 2
Flags: W
LayerCount: 2
Fore
SplineSet
50 770 m 1,0,-1
 236 768 l 1,1,-1
 366 541 l 1,2,-1
 498 769 l 1,3,-1
 673 768 l 1,4,-1
 453 388 l 1,5,-1
 674 0 l 1,6,-1
 499 -2 l 1,7,-1
 363 233 l 1,8,-1
 229 2 l 1,9,-1
 51 -1 l 1,10,-1
 274 384 l 1,11,-1
 50 770 l 1,0,-1
EndSplineSet
EndChar

StartChar: Y
Encoding: 89 89 60
Width: 512
GlyphClass: 2
Flags: W
LayerCount: 2
Fore
SplineSet
193 451 m 1,0,-1
 -6 765 l 1,1,-1
 146 765 l 1,2,-1
 270 594 l 1,3,-1
 394 765 l 1,4,-1
 546 765 l 1,5,-1
 346 450 l 1,6,-1
 345 450 l 1,7,-1
 345 1 l 1,8,-1
 193 1 l 1,9,-1
 193 451 l 1,0,-1
EndSplineSet
EndChar

StartChar: Z
Encoding: 90 90 61
Width: 783
GlyphClass: 2
Flags: W
LayerCount: 2
Fore
SplineSet
50 10 m 1,0,-1
 50 162 l 1,1,-1
 480 610 l 1,2,-1
 50 610 l 1,3,-1
 50 762 l 1,4,-1
 733 762 l 1,5,-1
 733 610 l 1,6,-1
 301 162 l 1,7,-1
 733 162 l 1,8,-1
 733 10 l 1,9,-1
 50 10 l 1,0,-1
EndSplineSet
EndChar

StartChar: bracketleft
Encoding: 91 91 62
Width: 362
GlyphClass: 2
Flags: W
LayerCount: 2
Fore
SplineSet
51 -80 m 1,0,-1
 50 -80 l 1,1,-1
 50 -79 l 1,2,-1
 50 773 l 1,3,-1
 50 774 l 1,4,-1
 51 774 l 1,5,-1
 312 774 l 1,6,-1
 311 689 l 1,7,-1
 144 689 l 1,8,-1
 144 5 l 1,9,-1
 311 5 l 1,10,-1
 312 -80 l 1,11,-1
 51 -80 l 1,0,-1
EndSplineSet
EndChar

StartChar: backslash
Encoding: 92 92 63
Width: 691
GlyphClass: 2
Flags: W
LayerCount: 2
Fore
SplineSet
156 818 m 1,0,-1
 641 -22 l 1,1,-1
 535 -83 l 1,2,-1
 50 757 l 1,3,-1
 156 818 l 1,0,-1
EndSplineSet
EndChar

StartChar: bracketright
Encoding: 93 93 64
Width: 362
GlyphClass: 2
Flags: W
LayerCount: 2
Fore
SplineSet
311 -81 m 1,0,-1
 50 -81 l 1,1,-1
 51 4 l 1,2,-1
 218 4 l 1,3,-1
 218 689 l 1,4,-1
 51 689 l 1,5,-1
 50 774 l 1,6,-1
 311 774 l 1,7,-1
 312 774 l 1,8,-1
 312 773 l 1,9,-1
 312 -80 l 1,10,-1
 312 -81 l 1,11,-1
 311 -81 l 1,0,-1
EndSplineSet
EndChar

StartChar: asciicircum
Encoding: 94 94 65
Width: 644
GlyphClass: 2
Flags: W
LayerCount: 2
Fore
SplineSet
121 283 m 1,0,-1
 264 617 l 1,1,-1
 265 617 l 1,2,-1
 416 617 l 1,3,-1
 417 617 l 1,4,-1
 523 283 l 1,5,-1
 371 283 l 1,6,-1
 329 497 l 1,7,-1
 273 283 l 1,8,-1
 121 283 l 1,0,-1
EndSplineSet
EndChar

StartChar: underscore
Encoding: 95 95 66
Width: 544
GlyphClass: 2
Flags: W
LayerCount: 2
Fore
SplineSet
544 196 m 1,0,-1
 544 44 l 1,1,-1
 0 44 l 1,2,-1
 0 196 l 1,3,-1
 544 196 l 1,0,-1
EndSplineSet
EndChar

StartChar: grave
Encoding: 96 96 67
Width: 252
GlyphClass: 2
Flags: W
LayerCount: 2
Fore
SplineSet
163 516 m 1,0,-1
 -19 698 l 1,1,-1
 89 805 l 1,2,-1
 271 623 l 1,3,-1
 163 516 l 1,0,-1
EndSplineSet
EndChar

StartChar: a
Encoding: 97 97 68
Width: 512
GlyphClass: 2
Flags: W
LayerCount: 2
Fore
SplineSet
332 1 m 1,0,-1
 332 9 l 1,1,2
 324 8 324 8 308 8 c 0,3,4
 201 8 201 8 125.5 83.5 c 128,-1,5
 50 159 50 159 50 266 c 0,6,7
 50 372 50 372 125 443.5 c 128,-1,8
 200 515 200 515 308 515 c 0,9,10
 324 515 324 515 332 514 c 2,11,-1
 484 514 l 1,12,-1
 484 1 l 1,13,-1
 332 1 l 1,0,-1
332 369 m 1,14,15
 320 372 320 372 308 372 c 0,16,17
 263 372 263 372 232 341 c 128,-1,18
 201 310 201 310 201 266 c 0,19,20
 201 221 201 221 232 190 c 128,-1,21
 263 159 263 159 308 159 c 0,22,23
 320 159 320 159 332 162 c 1,24,-1
 332 369 l 1,14,15
EndSplineSet
EndChar

StartChar: b
Encoding: 98 98 69
Width: 512
GlyphClass: 2
Flags: W
LayerCount: 2
Fore
SplineSet
202 780 m 1,0,-1
 202 517 l 1,1,2
 210 518 210 518 226 518 c 0,3,4
 333 518 333 518 408.5 442.5 c 128,-1,5
 484 367 484 367 484 260 c 128,-1,6
 484 153 484 153 408.5 78 c 128,-1,7
 333 3 333 3 226 3 c 0,8,9
 210 3 210 3 202 4 c 2,10,-1
 50 4 l 1,11,-1
 50 780 l 1,12,-1
 202 780 l 1,0,-1
202 157 m 1,13,14
 214 154 214 154 226 154 c 0,15,16
 271 154 271 154 302 185 c 128,-1,17
 333 216 333 216 333 260 c 0,18,19
 333 305 333 305 302 336 c 128,-1,20
 271 367 271 367 226 367 c 0,21,22
 214 367 214 367 202 364 c 1,23,-1
 202 157 l 1,13,14
EndSplineSet
EndChar

StartChar: c
Encoding: 99 99 70
Width: 384
GlyphClass: 2
Flags: W
LayerCount: 2
Fore
SplineSet
334 4 m 1,0,1
 321 3 321 3 308 3 c 0,2,3
 201 3 201 3 125.5 78 c 128,-1,4
 50 153 50 153 50 260 c 128,-1,5
 50 367 50 367 125.5 442.5 c 128,-1,6
 201 518 201 518 308 518 c 0,7,8
 321 518 321 518 334 517 c 1,9,-1
 334 364 l 1,10,11
 321 367 321 367 308 367 c 0,12,13
 263 367 263 367 232 336 c 128,-1,14
 201 305 201 305 201 260 c 0,15,16
 201 216 201 216 232 185 c 128,-1,17
 263 154 263 154 308 154 c 0,18,19
 321 154 321 154 334 157 c 1,20,-1
 334 4 l 1,0,1
EndSplineSet
EndChar

StartChar: d
Encoding: 100 100 71
Width: 512
GlyphClass: 2
Flags: W
LayerCount: 2
Fore
SplineSet
332 780 m 1,0,-1
 484 780 l 1,1,-1
 484 4 l 1,2,-1
 332 4 l 2,3,4
 320 3 320 3 308 3 c 0,5,6
 201 3 201 3 125.5 78 c 128,-1,7
 50 153 50 153 50 260 c 128,-1,8
 50 367 50 367 125.5 442.5 c 128,-1,9
 201 518 201 518 308 518 c 0,10,11
 320 518 320 518 332 517 c 1,12,-1
 332 780 l 1,0,-1
332 157 m 1,13,-1
 332 364 l 1,14,15
 320 367 320 367 308 367 c 0,16,17
 263 367 263 367 232 336 c 128,-1,18
 201 305 201 305 201 260 c 0,19,20
 201 216 201 216 232 185 c 128,-1,21
 263 154 263 154 308 154 c 0,22,23
 320 154 320 154 332 157 c 1,13,-1
EndSplineSet
EndChar

StartChar: e
Encoding: 101 101 72
Width: 617
GlyphClass: 2
Flags: W
LayerCount: 2
Fore
SplineSet
566 260 m 0,0,1
 566 250 566 250 566.5 232.5 c 128,-1,2
 567 215 567 215 567 208 c 1,3,-1
 216 205 l 1,4,5
 230 182 230 182 254.5 168 c 128,-1,6
 279 154 279 154 308 154 c 0,7,8
 342 154 342 154 445.5 156.5 c 128,-1,9
 549 159 549 159 557 162 c 1,10,-1
 557 6 l 1,11,12
 538 3 538 3 308 3 c 0,13,14
 201 3 201 3 125.5 78 c 128,-1,15
 50 153 50 153 50 260 c 128,-1,16
 50 367 50 367 125.5 442.5 c 128,-1,17
 201 518 201 518 308 518 c 128,-1,18
 415 518 415 518 490.5 442.5 c 128,-1,19
 566 367 566 367 566 260 c 0,0,1
230 334 m 1,20,-1
 387 332 l 1,21,22
 356 367 356 367 308 367 c 0,23,24
 262 367 262 367 230 334 c 1,20,-1
EndSplineSet
EndChar

StartChar: f
Encoding: 102 102 73
Width: 512
GlyphClass: 2
Flags: W
LayerCount: 2
Fore
SplineSet
464 752 m 1,0,-1
 464 584 l 1,1,2
 433 610 433 610 393 610 c 0,3,4
 344 610 344 610 312 573 c 1,5,-1
 312 511 l 1,6,-1
 409 511 l 1,7,-1
 409 359 l 1,8,-1
 312 359 l 1,9,-1
 312 -3 l 1,10,-1
 145 -3 l 1,11,-1
 147 359 l 1,12,-1
 50 359 l 1,13,-1
 50 511 l 1,14,-1
 148 511 l 1,15,-1
 148 574 l 1,16,17
 172 657 172 657 239 709 c 128,-1,18
 306 761 306 761 393 761 c 0,19,20
 430 761 430 761 464 752 c 1,0,-1
EndSplineSet
EndChar

StartChar: g
Encoding: 103 103 74
Width: 620
GlyphClass: 2
Flags: W
LayerCount: 2
Fore
SplineSet
310 367 m 0,0,1
 297 367 297 367 286 364 c 1,2,-1
 286 365 l 1,3,4
 249 357 249 357 225 328 c 128,-1,5
 201 299 201 299 201 260 c 0,6,7
 201 222 201 222 225 193 c 128,-1,8
 249 164 249 164 286 156 c 1,9,-1
 286 157 l 1,10,11
 297 154 297 154 310 154 c 0,12,13
 322 154 322 154 334 157 c 1,14,-1
 334 156 l 1,15,16
 371 164 371 164 395 193 c 128,-1,17
 419 222 419 222 419 260 c 0,18,19
 419 299 419 299 395 328 c 128,-1,20
 371 357 371 357 334 365 c 1,21,-1
 334 364 l 1,22,23
 322 367 322 367 310 367 c 0,0,1
309 3 m 256,24,25
 308 3 308 3 308 3 c 2,26,27
 306 3 306 3 304 3 c 2,28,29
 304 3 304 3 300 3 c 0,30,31
 263 3 263 3 259 4 c 0,32,33
 161 11 161 11 105.5 82.5 c 128,-1,34
 50 154 50 154 50 260 c 0,35,36
 50 362 50 362 119.5 436.5 c 128,-1,37
 189 511 189 511 290 517 c 0,38,39
 296 518 296 518 304 518 c 0,40,41
 306 518 306 518 308 518 c 2,42,43
 308 518 308 518 309 518 c 256,44,45
 310 518 310 518 312 518 c 0,46,47
 419 518 419 518 494.5 443 c 128,-1,48
 570 368 570 368 570 261 c 1,49,-1
 570 261 l 1,50,51
 570 260 570 260 570 260 c 2,52,53
 570 257 570 257 570 253 c 2,54,-1
 567 -18 l 1,55,56
 543 -101 543 -101 477.5 -153 c 128,-1,57
 412 -205 412 -205 325 -205 c 0,58,59
 154 -205 154 -205 120 -196 c 1,60,-1
 120 -28 l 1,61,62
 132 -38 132 -38 211 -46 c 128,-1,63
 290 -54 290 -54 325 -54 c 0,64,65
 351 -54 351 -54 377.5 -44 c 128,-1,66
 404 -34 404 -34 419 -17 c 1,67,-1
 419 26 l 1,68,69
 368 3 368 3 312 3 c 0,70,71
 310 3 310 3 309 3 c 256,24,25
EndSplineSet
EndChar

StartChar: h
Encoding: 104 104 75
Width: 597
GlyphClass: 2
Flags: W
LayerCount: 2
Fore
SplineSet
50 768 m 1,0,-1
 219 768 l 1,1,-1
 219 512 l 1,2,3
 258 524 258 524 299 524 c 0,4,5
 386 524 386 524 453 472 c 128,-1,6
 520 420 520 420 544 337 c 1,7,-1
 547 6 l 1,8,-1
 380 6 l 1,9,-1
 380 336 l 1,10,11
 348 373 348 373 299 373 c 0,12,13
 251 373 251 373 219 338 c 1,14,-1
 219 6 l 1,15,-1
 50 6 l 1,16,-1
 50 768 l 1,0,-1
EndSplineSet
EndChar

StartChar: i
Encoding: 105 105 76
Width: 252
GlyphClass: 2
Flags: W
LayerCount: 2
Fore
SplineSet
50 512 m 1,0,-1
 202 512 l 1,1,-1
 202 -2 l 1,2,-1
 50 -2 l 1,3,-1
 50 512 l 1,0,-1
50 772 m 1,4,-1
 202 772 l 1,5,-1
 202 630 l 1,6,-1
 50 630 l 1,7,-1
 50 772 l 1,4,-1
EndSplineSet
EndChar

StartChar: j
Encoding: 106 106 77
Width: 419
GlyphClass: 2
Flags: W
LayerCount: 2
Fore
SplineSet
50 -195 m 1,0,-1
 50 -27 l 1,1,2
 81 -53 81 -53 121 -53 c 0,3,4
 170 -53 170 -53 202 -16 c 1,5,-1
 202 517 l 1,6,-1
 369 517 l 1,7,-1
 366 -17 l 1,8,9
 342 -100 342 -100 275 -152 c 128,-1,10
 208 -204 208 -204 121 -204 c 0,11,12
 84 -204 84 -204 50 -195 c 1,0,-1
214 772 m 1,13,-1
 366 772 l 1,14,-1
 366 630 l 1,15,-1
 214 630 l 1,16,-1
 214 772 l 1,13,-1
EndSplineSet
EndChar

StartChar: k
Encoding: 107 107 78
Width: 753
GlyphClass: 2
Flags: W
LayerCount: 2
Fore
SplineSet
61 774 m 1,0,-1
 202 774 l 1,1,-1
 202 317 l 1,2,-1
 447 529 l 1,3,-1
 640 527 l 1,4,-1
 379 284 l 1,5,-1
 649 -3 l 1,6,-1
 463 -2 l 1,7,-1
 259 226 l 1,8,-1
 202 154 l 1,9,-1
 202 -2 l 1,10,-1
 61 -2 l 1,11,-1
 61 774 l 1,0,-1
EndSplineSet
EndChar

StartChar: l
Encoding: 108 108 79
Width: 419
GlyphClass: 2
Flags: W
LayerCount: 2
Fore
SplineSet
369 6 m 1,0,1
 335 -3 335 -3 298 -3 c 0,2,3
 211 -3 211 -3 144 49 c 128,-1,4
 77 101 77 101 53 184 c 1,5,-1
 50 761 l 1,6,-1
 217 761 l 1,7,-1
 217 185 l 1,8,9
 249 148 249 148 298 148 c 0,10,11
 338 148 338 148 369 174 c 1,12,-1
 369 6 l 1,0,1
EndSplineSet
EndChar

StartChar: m
Encoding: 109 109 80
Width: 924
GlyphClass: 2
Flags: W
LayerCount: 2
Fore
SplineSet
50 522 m 1,0,-1
 219 522 l 1,1,-1
 219 512 l 1,2,3
 258 524 258 524 299 524 c 0,4,5
 386 524 386 524 453 472 c 128,-1,6
 520 420 520 420 544 337 c 1,7,-1
 547 6 l 1,8,-1
 380 6 l 1,9,-1
 380 336 l 1,10,11
 348 373 348 373 299 373 c 0,12,13
 251 373 251 373 219 338 c 1,14,-1
 219 6 l 1,15,-1
 50 6 l 1,16,-1
 50 522 l 1,0,-1
381 429 m 1,17,-1
 546 512 l 1,18,19
 585 524 585 524 626 524 c 0,20,21
 713 524 713 524 780 472 c 128,-1,22
 847 420 847 420 871 337 c 1,23,-1
 874 6 l 1,24,-1
 707 6 l 1,25,-1
 707 336 l 1,26,27
 675 373 675 373 626 373 c 0,28,29
 578 373 578 373 546 338 c 1,30,-1
 546 6 l 1,31,-1
 377 6 l 1,32,-1
 381 429 l 1,17,-1
EndSplineSet
EndChar

StartChar: n
Encoding: 110 110 81
Width: 597
GlyphClass: 2
Flags: W
LayerCount: 2
Fore
SplineSet
50 522 m 1,0,-1
 219 522 l 1,1,-1
 219 512 l 1,2,3
 258 524 258 524 299 524 c 0,4,5
 386 524 386 524 453 472 c 128,-1,6
 520 420 520 420 544 337 c 1,7,-1
 547 6 l 1,8,-1
 380 6 l 1,9,-1
 380 336 l 1,10,11
 348 373 348 373 299 373 c 0,12,13
 251 373 251 373 219 338 c 1,14,-1
 219 6 l 1,15,-1
 50 6 l 1,16,-1
 50 522 l 1,0,-1
EndSplineSet
EndChar

StartChar: o
Encoding: 111 111 82
Width: 616
GlyphClass: 2
Flags: W
LayerCount: 2
Fore
SplineSet
309 3 m 256,0,1
 308 3 308 3 308 3 c 2,2,3
 306 3 306 3 304 3 c 0,4,5
 296 3 296 3 290 4 c 0,6,7
 189 10 189 10 119.5 84 c 128,-1,8
 50 158 50 158 50 260 c 256,9,10
 50 362 50 362 119.5 436.5 c 128,-1,11
 189 511 189 511 290 517 c 0,12,13
 296 518 296 518 304 518 c 0,14,15
 306 518 306 518 308 518 c 2,16,17
 308 518 308 518 309 518 c 256,18,19
 310 518 310 518 312 518 c 0,20,21
 419 518 419 518 494.5 442.5 c 128,-1,22
 570 367 570 367 570 260 c 128,-1,23
 570 153 570 153 494.5 78 c 128,-1,24
 419 3 419 3 312 3 c 0,25,26
 310 3 310 3 309 3 c 256,0,1
310 367 m 0,27,28
 297 367 297 367 286 364 c 1,29,-1
 286 365 l 1,30,31
 249 357 249 357 225 328 c 128,-1,32
 201 299 201 299 201 260 c 0,33,34
 201 222 201 222 225 193 c 128,-1,35
 249 164 249 164 286 156 c 1,36,-1
 286 157 l 1,37,38
 297 154 297 154 310 154 c 0,39,40
 322 154 322 154 334 157 c 1,41,-1
 334 156 l 1,42,43
 371 164 371 164 395 193 c 128,-1,44
 419 222 419 222 419 260 c 0,45,46
 419 299 419 299 395 328 c 128,-1,47
 371 357 371 357 334 365 c 1,48,-1
 334 364 l 1,49,50
 322 367 322 367 310 367 c 0,27,28
EndSplineSet
EndChar

StartChar: p
Encoding: 112 112 83
Width: 512
GlyphClass: 2
Flags: W
LayerCount: 2
Fore
SplineSet
202 -202 m 1,0,-1
 50 -202 l 1,1,-1
 50 509 l 1,2,-1
 202 509 l 2,3,4
 210 510 210 510 226 510 c 0,5,6
 333 510 333 510 408.5 435 c 128,-1,7
 484 360 484 360 484 253 c 128,-1,8
 484 146 484 146 408.5 70.5 c 128,-1,9
 333 -5 333 -5 226 -5 c 0,10,11
 210 -5 210 -5 202 -4 c 1,12,-1
 202 -202 l 1,0,-1
202 356 m 1,13,-1
 202 149 l 1,14,15
 214 146 214 146 226 146 c 0,16,17
 271 146 271 146 302 177 c 128,-1,18
 333 208 333 208 333 253 c 0,19,20
 333 297 333 297 302 328 c 128,-1,21
 271 359 271 359 226 359 c 0,22,23
 214 359 214 359 202 356 c 1,13,-1
EndSplineSet
EndChar

StartChar: q
Encoding: 113 113 84
Width: 512
GlyphClass: 2
Flags: W
LayerCount: 2
Fore
SplineSet
332 -202 m 1,0,-1
 332 -4 l 1,1,2
 324 -5 324 -5 308 -5 c 0,3,4
 201 -5 201 -5 125.5 70.5 c 128,-1,5
 50 146 50 146 50 253 c 128,-1,6
 50 360 50 360 125.5 435 c 128,-1,7
 201 510 201 510 308 510 c 0,8,9
 324 510 324 510 332 509 c 2,10,-1
 484 509 l 1,11,-1
 484 -202 l 1,12,-1
 332 -202 l 1,0,-1
332 356 m 1,13,14
 320 359 320 359 308 359 c 0,15,16
 263 359 263 359 232 328 c 128,-1,17
 201 297 201 297 201 253 c 0,18,19
 201 208 201 208 232 177 c 128,-1,20
 263 146 263 146 308 146 c 0,21,22
 320 146 320 146 332 149 c 1,23,-1
 332 356 l 1,13,14
EndSplineSet
EndChar

StartChar: r
Encoding: 114 114 85
Width: 587
GlyphClass: 2
Flags: W
LayerCount: 2
Fore
SplineSet
50 522 m 1,0,-1
 219 522 l 1,1,-1
 219 512 l 1,2,3
 258 524 258 524 299 524 c 0,4,5
 379 524 379 524 443.5 473 c 128,-1,6
 508 422 508 422 537 345 c 1,7,-1
 372 345 l 1,8,-1
 372 344 l 1,9,10
 341 373 341 373 299 373 c 0,11,12
 251 373 251 373 219 338 c 1,13,-1
 219 6 l 1,14,-1
 50 6 l 1,15,-1
 50 522 l 1,0,-1
EndSplineSet
EndChar

StartChar: s
Encoding: 115 115 86
Width: 508
GlyphClass: 2
Flags: W
LayerCount: 2
Fore
SplineSet
69 47 m 1,0,-1
 136 159 l 1,1,2
 143 152 143 152 158 147 c 0,3,4
 198 130 198 130 229.5 134 c 128,-1,5
 261 138 261 138 281 162 c 0,6,7
 304 189 304 189 259 201 c 0,8,9
 247 204 247 204 205 211 c 1,10,11
 139 237 139 237 99 271.5 c 128,-1,12
 59 306 59 306 51 348 c 128,-1,13
 43 390 43 390 81 434 c 0,14,15
 128 491 128 491 228 502.5 c 128,-1,16
 328 514 328 514 424 473 c 0,17,18
 442 465 442 465 446 462 c 1,19,-1
 379 332 l 1,20,21
 365 341 365 341 357 344 c 0,22,23
 316 360 316 360 296 356 c 128,-1,24
 276 352 276 352 256 328 c 0,25,26
 231 302 231 302 235.5 292.5 c 128,-1,27
 240 283 240 283 287 275 c 1,28,29
 326 258 326 258 355 243.5 c 128,-1,30
 384 229 384 229 410.5 209 c 128,-1,31
 437 189 437 189 448.5 169.5 c 128,-1,32
 460 150 460 150 457.5 125.5 c 128,-1,33
 455 101 455 101 433 75 c 0,34,35
 386 18 386 18 286 5.5 c 128,-1,36
 186 -7 186 -7 91 34 c 0,37,38
 83 36 83 36 69 47 c 1,0,-1
EndSplineSet
EndChar

StartChar: t
Encoding: 116 116 87
Width: 514
GlyphClass: 2
Flags: W
LayerCount: 2
Fore
SplineSet
464 6 m 1,0,1
 430 -3 430 -3 393 -3 c 0,2,3
 306 -3 306 -3 239 49 c 128,-1,4
 172 101 172 101 148 184 c 1,5,-1
 147 364 l 1,6,-1
 50 364 l 1,7,-1
 50 516 l 1,8,-1
 146 516 l 1,9,-1
 145 761 l 1,10,-1
 312 761 l 1,11,-1
 312 516 l 1,12,-1
 409 516 l 1,13,-1
 409 364 l 1,14,-1
 312 364 l 1,15,-1
 312 185 l 1,16,17
 344 148 344 148 393 148 c 0,18,19
 433 148 433 148 464 174 c 1,20,-1
 464 6 l 1,0,1
EndSplineSet
EndChar

StartChar: u
Encoding: 117 117 88
Width: 598
GlyphClass: 2
Flags: W
LayerCount: 2
Fore
SplineSet
548 8 m 1,0,-1
 379 8 l 1,1,-1
 379 18 l 1,2,3
 340 6 340 6 299 6 c 0,4,5
 212 6 212 6 145 58 c 128,-1,6
 78 110 78 110 54 193 c 1,7,-1
 51 524 l 1,8,-1
 218 524 l 1,9,-1
 218 194 l 1,10,11
 250 157 250 157 299 157 c 0,12,13
 347 157 347 157 379 192 c 1,14,-1
 379 524 l 1,15,-1
 548 524 l 1,16,-1
 548 8 l 1,0,-1
EndSplineSet
EndChar

StartChar: v
Encoding: 118 118 89
Width: 652
GlyphClass: 2
Flags: W
LayerCount: 2
Fore
SplineSet
50 511 m 1,0,-1
 202 511 l 1,1,-1
 326 144 l 1,2,-1
 450 511 l 1,3,-1
 602 511 l 1,4,-1
 402 0 l 1,5,-1
 250 0 l 1,6,-1
 50 511 l 1,0,-1
EndSplineSet
EndChar

StartChar: w
Encoding: 119 119 90
Width: 1044
GlyphClass: 2
Flags: W
LayerCount: 2
Fore
SplineSet
446 511 m 1,0,-1
 598 511 l 1,1,-1
 718 144 l 1,2,-1
 842 511 l 1,3,-1
 994 511 l 1,4,-1
 794 0 l 1,5,-1
 646 0 l 1,6,-1
 522 317 l 1,7,-1
 398 0 l 1,8,-1
 250 0 l 1,9,-1
 50 511 l 1,10,-1
 198 511 l 1,11,-1
 322 144 l 1,12,-1
 446 511 l 1,0,-1
EndSplineSet
EndChar

StartChar: x
Encoding: 120 120 91
Width: 724
GlyphClass: 2
Flags: W
LayerCount: 2
Fore
SplineSet
50 513 m 1,0,-1
 236 511 l 1,1,-1
 365 360 l 1,2,-1
 498 512 l 1,3,-1
 673 511 l 1,4,-1
 453 258 l 1,5,-1
 674 0 l 1,6,-1
 499 -2 l 1,7,-1
 362 155 l 1,8,-1
 229 2 l 1,9,-1
 51 -1 l 1,10,-1
 274 256 l 1,11,-1
 50 513 l 1,0,-1
EndSplineSet
EndChar

StartChar: y
Encoding: 121 121 92
Width: 652
GlyphClass: 2
Flags: W
LayerCount: 2
Fore
SplineSet
50 511 m 1,0,-1
 221 511 l 1,1,-1
 345 144 l 1,2,-1
 450 511 l 1,3,-1
 635 514 l 1,4,-1
 356 -200 l 1,5,-1
 208 -204 l 1,6,-1
 277 0 l 1,7,-1
 50 511 l 1,0,-1
EndSplineSet
EndChar

StartChar: z
Encoding: 122 122 93
Width: 512
GlyphClass: 2
Flags: W
LayerCount: 2
Fore
SplineSet
50 10 m 1,0,-1
 50 162 l 1,1,-1
 293 366 l 1,2,-1
 50 366 l 1,3,-1
 50 518 l 1,4,-1
 503 518 l 1,5,-1
 503 366 l 1,6,-1
 301 162 l 1,7,-1
 503 162 l 1,8,-1
 503 10 l 1,9,-1
 50 10 l 1,0,-1
EndSplineSet
EndChar

StartChar: braceleft
Encoding: 123 123 94
Width: 419
GlyphClass: 2
Flags: W
LayerCount: 2
Fore
SplineSet
451 -85 m 1,0,1
 436 -92 436 -92 414 -92 c 0,2,3
 370 -92 370 -92 335.5 -50 c 128,-1,4
 301 -8 301 -8 289 58 c 1,5,-1
 288 228 l 1,6,-1
 179 358 l 1,7,-1
 288 485 l 1,8,-1
 289 655 l 1,9,10
 301 721 301 721 335.5 763 c 128,-1,11
 370 805 370 805 414 805 c 0,12,13
 436 805 436 805 451 798 c 1,14,-1
 451 663 l 1,15,16
 435 684 435 684 414 684 c 0,17,18
 390 684 390 684 373 654 c 1,19,-1
 374 470 l 1,20,-1
 292 369 l 1,21,-1
 373 228 l 1,22,-1
 373 58 l 1,23,24
 389 29 389 29 414 29 c 0,25,26
 435 29 435 29 451 50 c 1,27,-1
 451 -85 l 1,0,1
EndSplineSet
EndChar

StartChar: bar
Encoding: 124 124 95
Width: 252
GlyphClass: 2
Flags: W
LayerCount: 2
Fore
SplineSet
65 871 m 1,0,-1
 187 871 l 1,1,-1
 187 -99 l 1,2,-1
 65 -99 l 1,3,-1
 65 871 l 1,0,-1
EndSplineSet
EndChar

StartChar: braceright
Encoding: 125 125 96
Width: 419
GlyphClass: 2
Flags: W
LayerCount: 2
Fore
SplineSet
179 -85 m 1,0,-1
 179 50 l 1,1,2
 195 29 195 29 216 29 c 0,3,4
 241 29 241 29 257 58 c 1,5,-1
 257 228 l 1,6,-1
 338 369 l 1,7,-1
 256 470 l 1,8,-1
 257 654 l 1,9,10
 240 684 240 684 216 684 c 0,11,12
 195 684 195 684 179 663 c 1,13,-1
 179 798 l 1,14,15
 194 805 194 805 216 805 c 0,16,17
 260 805 260 805 294.5 763 c 128,-1,18
 329 721 329 721 341 655 c 1,19,-1
 342 485 l 1,20,-1
 451 358 l 1,21,-1
 342 228 l 1,22,-1
 341 58 l 1,23,24
 329 -8 329 -8 294.5 -50 c 128,-1,25
 260 -92 260 -92 216 -92 c 0,26,27
 194 -92 194 -92 179 -85 c 1,0,-1
EndSplineSet
EndChar

StartChar: asciitilde
Encoding: 126 126 97
Width: 644
GlyphClass: 2
Flags: W
LayerCount: 2
Fore
SplineSet
549 577 m 1,0,-1
 549 425 l 2,1,2
 548 421 548 421 532.5 403 c 128,-1,3
 517 385 517 385 485 364.5 c 128,-1,4
 453 344 453 344 421 344 c 2,5,-1
 321 344 l 2,6,7
 289 344 289 344 244.5 372 c 128,-1,8
 200 400 200 400 168 400 c 0,9,10
 145 400 145 400 115.5 386 c 128,-1,11
 86 372 86 372 68 358 c 2,12,-1
 50 344 l 1,13,-1
 50 496 l 1,14,15
 114 552 114 552 164 552 c 0,16,17
 197 552 197 552 244 524.5 c 128,-1,18
 291 497 291 497 324 497 c 0,19,20
 369 497 369 497 413 497 c 0,21,22
 444 497 444 497 478 517 c 128,-1,23
 512 537 512 537 530 557 c 2,24,-1
 549 577 l 1,0,-1
EndSplineSet
EndChar

StartChar: u1F64F
Encoding: 128591 128591 98
Width: 1024
GlyphClass: 2
Flags: W
LayerCount: 2
Fore
SplineSet
911.5 -20.5 m 128,-1,1
 912 -30 912 -30 906 -38 c 2,2,-1
 766 -197 l 2,3,4
 759 -205 759 -205 749 -205 c 0,5,6
 748 -205 748 -205 747 -205 c 0,7,8
 736 -204 736 -204 730 -195 c 2,9,-1
 531 83 l 2,10,11
 527 89 527 89 527 97 c 2,12,-1
 527 130 l 2,13,14
 527 780 527 780 527 796 c 0,15,16
 527 804 527 804 532 810.5 c 128,-1,17
 537 817 537 817 545 819 c 0,18,19
 564 822 564 822 571 805 c 2,20,-1
 729 435 l 2,21,22
 746 397 746 397 750 353 c 128,-1,23
 754 309 754 309 746.5 269 c 128,-1,24
 739 229 739 229 731.5 202.5 c 128,-1,25
 724 176 724 176 714 152 c 1,26,-1
 903 -5 l 2,27,0
 911 -11 911 -11 911.5 -20.5 c 128,-1,1
479 819 m 0,28,29
 487 817 487 817 492 810.5 c 128,-1,30
 497 804 497 804 497 796 c 0,31,32
 497 782 497 782 497 130 c 2,33,-1
 497 97 l 2,34,35
 497 89 497 89 493 83 c 2,36,-1
 294 -195 l 2,37,38
 288 -204 288 -204 277 -205 c 0,39,40
 276 -205 276 -205 275 -205 c 0,41,42
 265 -205 265 -205 258 -197 c 2,43,-1
 118 -38 l 2,44,45
 112 -30 112 -30 112.5 -20.5 c 128,-1,46
 113 -11 113 -11 121 -5 c 2,47,-1
 310 152 l 1,48,49
 300 176 300 176 292.5 202.5 c 128,-1,50
 285 229 285 229 277.5 269 c 128,-1,51
 270 309 270 309 274 353 c 128,-1,52
 278 397 278 397 295 435 c 2,53,-1
 453 805 l 2,54,55
 460 822 460 822 479 819 c 0,28,29
EndSplineSet
EndChar

StartChar: uniE366
Encoding: 58214 58214 99
Width: 1024
GlyphClass: 3
Flags: W
LayerCount: 2
Fore
SplineSet
561.466796875 749.2734375 m 4,0,1
 551.618164062 749.2734375 551.618164062 749.2734375 532.952148438 748.426757812 c 132,-1,2
 514.28515625 747.581054688 514.28515625 747.581054688 504.435546875 747.581054688 c 4,3,4
 496.384765625 747.581054688 496.384765625 747.581054688 480.286132812 747.913085938 c 132,-1,5
 464.188476562 748.24609375 464.188476562 748.24609375 456.333984375 748.262695312 c 4,6,7
 454.813476562 748.373046875 454.813476562 748.373046875 451.43359375 748.442382812 c 4,8,9
 444.2265625 748.4453125 444.2265625 748.4453125 419.857421875 742.634765625 c 4,10,11
 417.58984375 742.09375 417.58984375 742.09375 415.485351562 741.21875 c 4,12,13
 406.235351562 737.368164062 406.235351562 737.368164062 386.708984375 729.625976562 c 4,14,15
 357.388671875 718.000976562 357.388671875 718.000976562 343.920898438 712.189453125 c 132,-1,16
 330.453125 706.376953125 330.453125 706.376953125 305.791992188 693.984375 c 132,-1,17
 281.131835938 681.591796875 281.131835938 681.591796875 263.91796875 667.525390625 c 132,-1,18
 246.703125 653.459960938 246.703125 653.459960938 233.723632812 636.366210938 c 4,19,20
 197.962890625 590.974609375 197.962890625 590.974609375 190.109375 523.745117188 c 4,21,22
 186 488.568359375 186 488.568359375 186 446.6640625 c 4,23,24
 186 446.419921875 186 446.419921875 186.006835938 446.177734375 c 4,25,26
 186.297851562 436.450195312 186.297851562 436.450195312 187.926757812 425.772460938 c 132,-1,27
 189.5546875 415.094726562 189.5546875 415.094726562 191.080078125 407.694335938 c 132,-1,28
 192.60546875 400.29296875 192.60546875 400.29296875 196.506835938 387.951171875 c 132,-1,29
 200.408203125 375.609375 200.408203125 375.609375 202.00390625 370.966796875 c 132,-1,30
 203.600585938 366.32421875 203.600585938 366.32421875 208.827148438 352.189453125 c 132,-1,31
 214.053710938 338.053710938 214.053710938 338.053710938 214.990234375 335.478515625 c 4,32,33
 279.975585938 165.577148438 279.975585938 165.577148438 402.981445312 92.0869140625 c 4,34,35
 481.177734375 45.369140625 481.177734375 45.369140625 575.2734375 45.369140625 c 4,36,37
 605.106445312 45.369140625 605.106445312 45.369140625 636.186523438 50.1337890625 c 5,38,39
 649.959960938 47.484375 649.959960938 47.484375 663.801757812 47.484375 c 4,40,41
 706.883789062 47.484375 706.883789062 47.484375 738.529296875 70.4990234375 c 132,-1,42
 770.174804688 93.513671875 770.174804688 93.513671875 774.442382812 127.515625 c 4,43,44
 777.795898438 127.463867188 777.795898438 127.463867188 781 127.463867188 c 4,45,46
 813.26953125 127.463867188 813.26953125 127.463867188 835.771484375 156.5625 c 4,47,48
 848.549804688 173.087890625 848.549804688 173.087890625 864.790039062 212.693359375 c 4,49,50
 873.481445312 233.887695312 873.481445312 233.887695312 876.647460938 238.259765625 c 4,51,52
 879.284179688 241.900390625 879.284179688 241.900390625 879.852539062 246.08203125 c 6,53,-1
 889.852539062 319.682617188 l 6,54,55
 889.881835938 319.896484375 889.881835938 319.896484375 889.905273438 320.112304688 c 6,56,-1
 897.905273438 393.711914062 l 6,57,58
 898 394.583984375 898 394.583984375 898 395.463867188 c 4,59,60
 898 395.681640625 898 395.681640625 897.994140625 395.897460938 c 6,61,-1
 895.994140625 471.096679688 l 6,62,63
 895.938476562 473.211914062 895.938476562 473.211914062 895.336914062 475.255859375 c 4,64,65
 894.9609375 476.534179688 894.9609375 476.534179688 889.927734375 490.834960938 c 132,-1,66
 884.895507812 505.134765625 884.895507812 505.134765625 884.008789062 512.178710938 c 4,67,68
 884.008789062 512.178710938 884.008789062 512.178710938 884.077148438 515.928710938 c 4,69,70
 884.077148438 536.61328125 884.077148438 536.61328125 867.625 586.40625 c 5,71,72
 859.107421875 642.462890625 859.107421875 642.462890625 807.62890625 682.036132812 c 4,73,74
 762.821289062 716.481445312 762.821289062 716.481445312 696.942382812 732.876953125 c 132,-1,75
 631.063476562 749.2734375 631.063476562 749.2734375 561.466796875 749.2734375 c 4,0,1
834.077148438 515.928710938 m 4,76,77
 834.077148438 515.315429688 834.077148438 515.315429688 834.0390625 514.094726562 c 132,-1,78
 834 512.875 834 512.875 834 512.264648438 c 4,79,80
 834 505.915039062 834 505.915039062 836.811523438 495.875 c 4,81,82
 838.389648438 490.243164062 838.389648438 490.243164062 841.895507812 480.143554688 c 132,-1,83
 845.401367188 470.044921875 845.401367188 470.044921875 846.065429688 467.9921875 c 6,84,-1
 847.9765625 396.12890625 l 5,85,86
 840.493164062 322.432617188 840.493164062 322.432617188 830.666992188 254.267578125 c 4,87,88
 826.393554688 247.407226562 826.393554688 247.407226562 817.26953125 225.157226562 c 4,89,90
 802.873046875 190.049804688 802.873046875 190.049804688 793.21875 177.564453125 c 4,91,92
 785.408203125 167.463867188 785.408203125 167.463867188 781 167.463867188 c 4,93,94
 775.53125 167.463867188 775.53125 167.463867188 769.19140625 167.654296875 c 5,95,96
 760.685546875 201.741210938 760.685546875 201.741210938 760.685546875 246.76953125 c 4,97,98
 760.685546875 261.426757812 760.685546875 261.426757812 761.895507812 272.025390625 c 4,99,100
 762 272.940429688 762 272.940429688 762 273.864257812 c 4,101,102
 762 277.196289062 762 277.196289062 760.666015625 280.322265625 c 6,103,-1
 751.34375 302.161132812 l 5,104,105
 764.26953125 310.952148438 764.26953125 310.952148438 772.884765625 323.39453125 c 4,106,107
 785.783203125 342.021484375 785.783203125 342.021484375 797.461914062 361.079101562 c 4,108,109
 798.806640625 363.2734375 798.806640625 363.2734375 799.4453125 365.66015625 c 6,110,-1
 811.4453125 410.459960938 l 6,111,112
 812.044921875 412.698242188 812.044921875 412.698242188 812.00390625 414.6640625 c 6,113,-1
 809.99609375 509.409179688 l 6,114,115
 809.908203125 513.563476562 809.908203125 513.563476562 807.772460938 517.323242188 c 6,116,-1
 787.772460938 552.5234375 l 6,117,118
 786.5 554.762695312 786.5 554.762695312 784.580078125 556.694335938 c 6,119,-1
 722.580078125 619.094726562 l 6,120,121
 718.29296875 623.409179688 718.29296875 623.409179688 711.887695312 625.361328125 c 6,122,-1
 669.887695312 638.161132812 l 6,123,124
 667.02734375 639.033203125 667.02734375 639.033203125 663.981445312 639.323242188 c 6,125,-1
 579.981445312 647.323242188 l 6,126,127
 579.541992188 647.365234375 579.541992188 647.365234375 531.099609375 650.594726562 c 4,128,129
 530.0546875 650.6640625 530.0546875 650.6640625 529 650.6640625 c 6,130,-1
 517 650.6640625 l 6,131,132
 510.703125 650.6640625 510.703125 650.6640625 505.1875 648.291992188 c 4,133,134
 502.416015625 647.099609375 502.416015625 647.099609375 494.688476562 645.569335938 c 4,135,136
 483.353515625 643.325195312 483.353515625 643.325195312 476.487304688 640.8125 c 4,137,138
 376.625976562 603.69140625 376.625976562 603.69140625 344.19140625 546.05859375 c 4,139,140
 320.64453125 504.219726562 320.64453125 504.219726562 319.313476562 501.072265625 c 4,141,142
 318.649414062 499.504882812 318.649414062 499.504882812 318.319335938 497.868164062 c 6,143,-1
 308.319335938 448.267578125 l 6,144,145
 308.129882812 447.325195312 308.129882812 447.325195312 308.052734375 446.369140625 c 6,146,-1
 304.052734375 396.768554688 l 6,147,148
 304 396.122070312 304 396.122070312 304 395.463867188 c 4,149,150
 304 395.0390625 304 395.0390625 304.022460938 394.619140625 c 6,151,-1
 306.022460938 356.21875 l 6,152,153
 306.104492188 354.631835938 306.104492188 354.631835938 306.49609375 353.083007812 c 4,154,155
 314.727539062 320.532226562 314.727539062 320.532226562 325.884765625 301.385742188 c 4,156,157
 355.321289062 237.030273438 355.321289062 237.030273438 414.817382812 189.727539062 c 4,158,159
 442.791015625 164.541015625 442.791015625 164.541015625 493.44921875 151.594726562 c 132,-1,160
 544.106445312 138.649414062 544.106445312 138.649414062 594.319335938 134.836914062 c 132,-1,161
 644.53125 131.0234375 644.53125 131.0234375 645.934570312 130.665039062 c 4,162,163
 652.123046875 130.665039062 652.123046875 130.665039062 664.4375 130.708007812 c 132,-1,164
 676.750976562 130.750976562 676.750976562 130.750976562 682.849609375 130.750976562 c 4,165,166
 706.6953125 130.750976562 706.6953125 130.750976562 724.447265625 129.83203125 c 5,167,168
 721.390625 111.59375 721.390625 111.59375 704.224609375 99.5390625 c 132,-1,169
 687.05859375 87.484375 687.05859375 87.484375 663.801757812 87.484375 c 4,170,171
 654.043945312 87.484375 654.043945312 87.484375 644.115234375 89.8408203125 c 4,172,173
 640.6484375 90.6640625 640.6484375 90.6640625 637 90.6640625 c 4,174,175
 634.393554688 90.6640625 634.393554688 90.6640625 631.864257812 90.2412109375 c 4,176,177
 602.748046875 85.369140625 602.748046875 85.369140625 575.2734375 85.369140625 c 4,178,179
 497.77734375 85.369140625 497.77734375 85.369140625 432.857421875 124.155273438 c 4,180,181
 375.572265625 158.379882812 375.572265625 158.379882812 332.587890625 217.780273438 c 132,-1,182
 289.603515625 277.180664062 289.603515625 277.180664062 262.9609375 346.78515625 c 4,183,184
 236.90234375 418.465820312 236.90234375 418.465820312 236 446.9140625 c 4,185,186
 236.01171875 486.775390625 236.01171875 486.775390625 239.890625 519.983398438 c 4,187,188
 246.6484375 577.831054688 246.6484375 577.831054688 276.153320312 615.206054688 c 4,189,190
 294.330078125 639.203125 294.330078125 639.203125 325.775390625 656.245117188 c 132,-1,191
 357.220703125 673.287109375 357.220703125 673.287109375 408.864257812 693.762695312 c 4,192,193
 427.477539062 701.142578125 427.477539062 701.142578125 436.51953125 704.8828125 c 4,194,195
 450.403320312 708.4453125 450.403320312 708.4453125 451.313476562 708.4453125 c 4,196,197
 451.916015625 708.4453125 451.916015625 708.4453125 453.14453125 708.354492188 c 132,-1,198
 454.372070312 708.264648438 454.372070312 708.264648438 455 708.264648438 c 4,199,200
 463.030273438 708.264648438 463.030273438 708.264648438 479.555664062 707.922851562 c 132,-1,201
 496.081054688 707.581054688 496.081054688 707.581054688 504.435546875 707.581054688 c 4,202,203
 513.923828125 707.581054688 513.923828125 707.581054688 532.845703125 708.426757812 c 132,-1,204
 551.767578125 709.2734375 551.767578125 709.2734375 561.466796875 709.2734375 c 4,205,206
 622.225585938 709.2734375 622.225585938 709.2734375 679.85546875 694.883789062 c 132,-1,207
 737.485351562 680.495117188 737.485351562 680.495117188 772.997070312 653.1953125 c 4,208,209
 812.150390625 623.09765625 812.150390625 623.09765625 818.158203125 580.40625 c 4,210,211
 818.403320312 578.6640625 818.403320312 578.6640625 822.357421875 567.030273438 c 4,212,213
 834.077148438 532.553710938 834.077148438 532.553710938 834.077148438 515.928710938 c 4,76,77
558.0234375 487.405273438 m 4,214,215
 559.15625 486.870117188 559.15625 486.870117188 562.838867188 484.841796875 c 132,-1,216
 566.521484375 482.8125 566.521484375 482.8125 569.19921875 481.526367188 c 132,-1,217
 571.877929688 480.239257812 571.877929688 480.239257812 576.303710938 479.051757812 c 132,-1,218
 580.73046875 477.864257812 580.73046875 477.864257812 585 477.864257812 c 4,219,220
 595 477.864257812 595 477.864257812 602.5 483.864257812 c 132,-1,221
 610 489.864257812 610 489.864257812 610 497.864257812 c 4,222,223
 610 511.840820312 610 511.840820312 593.590820312 516.650390625 c 4,224,225
 591.921875 517.348632812 591.921875 517.348632812 586.927734375 520.19140625 c 132,-1,226
 581.934570312 523.034179688 581.934570312 523.034179688 576.576171875 524.850585938 c 132,-1,227
 571.216796875 526.666015625 571.216796875 526.666015625 563.845703125 527.3359375 c 4,228,229
 562.431640625 527.463867188 562.431640625 527.463867188 561 527.463867188 c 4,230,231
 539.984375 527.463867188 539.984375 527.463867188 524.440429688 520.834960938 c 4,232,233
 512.552734375 515.764648438 512.552734375 515.764648438 499.384765625 503.348632812 c 4,234,235
 492.857421875 497.194335938 492.857421875 497.194335938 489.676757812 495.586914062 c 4,236,237
 481.170898438 491.2890625 481.170898438 491.2890625 478.744140625 483.5234375 c 6,238,-1
 468.744140625 451.5234375 l 6,239,240
 468 449.141601562 468 449.141601562 468 446.6640625 c 4,241,242
 468 446.388671875 468 446.388671875 468.008789062 446.115234375 c 6,243,-1
 470.008789062 386.915039062 l 6,244,245
 470.1640625 382.319335938 470.1640625 382.319335938 472.8046875 378.2578125 c 6,246,-1
 498.8046875 338.2578125 l 6,247,248
 499.524414062 337.150390625 499.524414062 337.150390625 508.340820312 328.803710938 c 4,249,250
 521.55078125 316.297851562 521.55078125 316.297851562 534.352539062 311.755859375 c 4,251,252
 566.221679688 298.760742188 566.221679688 298.760742188 588.861328125 295.737304688 c 4,253,254
 590.813476562 295.4765625 590.813476562 295.4765625 592.807617188 295.46484375 c 4,255,256
 608.08984375 295.373046875 608.08984375 295.373046875 639.260742188 291.518554688 c 132,-1,257
 670.432617188 287.665039062 670.432617188 287.665039062 686.864257812 287.479492188 c 4,258,259
 692.78125 286.771484375 692.78125 286.771484375 699.620117188 286.709960938 c 4,260,261
 701.955078125 286.689453125 701.955078125 286.689453125 705.033203125 286.854492188 c 6,262,-1
 711.66015625 271.327148438 l 5,263,264
 710.685546875 260.4296875 710.685546875 260.4296875 710.685546875 246.76953125 c 4,265,266
 710.685546875 204.80859375 710.685546875 204.80859375 717.744140625 170.21875 c 5,267,268
 704.744140625 170.750976562 704.744140625 170.750976562 682.849609375 170.750976562 c 4,269,270
 676.703125 170.750976562 676.703125 170.750976562 664.388671875 170.708007812 c 132,-1,271
 652.075195312 170.665039062 652.075195312 170.665039062 645.934570312 170.665039062 c 4,272,273
 575.450195312 170.665039062 575.450195312 170.665039062 529.231445312 179.479492188 c 132,-1,274
 483.013671875 188.293945312 483.013671875 188.293945312 451.764648438 216.674804688 c 4,275,276
 451.192382812 217.193359375 451.192382812 217.193359375 450.578125 217.680664062 c 4,277,278
 398.247070312 259.095703125 398.247070312 259.095703125 372.510742188 315.875 c 4,279,280
 372.108398438 316.76171875 372.108398438 316.76171875 371.603515625 317.615234375 c 4,281,282
 362.834960938 332.409179688 362.834960938 332.409179688 355.89453125 359.508789062 c 5,283,-1
 354.034179688 395.232421875 l 5,284,-1
 357.870117188 442.802734375 l 5,285,-1
 367.336914062 489.754882812 l 6,286,287
 369.801757812 495.31640625 369.801757812 495.31640625 373.604492188 502.069335938 c 132,-1,288
 377.407226562 508.823242188 377.407226562 508.823242188 382.413085938 517.123046875 c 132,-1,289
 387.418945312 525.422851562 387.418945312 525.422851562 389.80859375 529.669921875 c 4,290,291
 414.58203125 573.6875 414.58203125 573.6875 497.512695312 604.515625 c 4,292,293
 501.080078125 605.821289062 501.080078125 605.821289062 509.423828125 607.439453125 c 132,-1,294
 517.767578125 609.05859375 517.767578125 609.05859375 522.577148438 610.6640625 c 6,295,-1
 527.9453125 610.6640625 l 6,296,297
 557.528320312 609.061523438 557.528320312 609.061523438 654.97265625 599.895507812 c 5,298,-1
 687.70703125 589.918945312 l 5,299,-1
 743.5 533.765625 l 5,300,-1
 760.091796875 504.564453125 l 5,301,-1
 761.955078125 416.629882812 l 5,302,-1
 751.197265625 376.467773438 l 5,303,304
 741.961914062 361.497070312 741.961914062 361.497070312 732.114257812 347.092773438 c 5,305,306
 731.178710938 348.903320312 731.178710938 348.903320312 725.81640625 355.337890625 c 4,307,308
 718.377929688 364.264648438 718.377929688 364.264648438 705 364.264648438 c 4,309,310
 695 364.264648438 695 364.264648438 687.5 358.264648438 c 132,-1,311
 680 352.264648438 680 352.264648438 680 344.264648438 c 4,312,313
 680 338.2109375 680 338.2109375 686.380859375 330.553710938 c 6,314,-1
 687.6953125 327.474609375 l 5,315,316
 672.846679688 327.642578125 672.846679688 327.642578125 642.251953125 331.422851562 c 132,-1,317
 611.658203125 335.202148438 611.658203125 335.202148438 595.400390625 335.440429688 c 4,318,319
 580.856445312 337.677734375 580.856445312 337.677734375 556.342773438 347.689453125 c 4,320,321
 551.946289062 349.484375 551.946289062 349.484375 546.544921875 354.598632812 c 4,322,323
 543.3125 357.658203125 543.3125 357.658203125 541.560546875 359.1875 c 6,324,-1
 519.8359375 392.609375 l 5,325,-1
 518.083984375 444.455078125 l 5,326,-1
 525.130859375 467.005859375 l 6,327,328
 530.0234375 470.420898438 530.0234375 470.420898438 537.524414062 477.493164062 c 4,329,330
 544.475585938 484.047851562 544.475585938 484.047851562 547.91015625 485.512695312 c 4,331,332
 551.731445312 487.142578125 551.731445312 487.142578125 558.0234375 487.405273438 c 4,214,215
EndSplineSet
LCarets2: 5 0 0 0 0 0
Ligature2: "'dlig' Discretionary Ligatures in Latin lookup 0 subtable" j a l e b i
EndChar

StartChar: uniE367
Encoding: 58215 58215 100
Width: 1024
GlyphClass: 3
Flags: W
LayerCount: 2
Fore
SplineSet
470 882 m 2,0,1
 470 885 470 885 474 885 c 128,-1,2
 478 885 478 885 478 882 c 2,3,-1
 478 271 l 1,4,-1
 495 245 l 2,5,6
 496 244 496 244 496 243 c 2,7,-1
 505 189 l 2,8,9
 505 185 505 185 501 185 c 0,10,11
 498 185 498 185 498 188 c 2,12,-1
 489 241 l 1,13,-1
 471 267 l 2,14,15
 470 268 470 268 470 270 c 2,16,-1
 470 882 l 2,0,1
38 176 m 1024,17,-1
38 176 m 1,18,-1
 897 176 l 1,19,-1
 474 900 l 1,20,-1
 38 176 l 1,18,-1
EndSplineSet
Ligature2: "'dlig' Discretionary Ligatures in Latin lookup 0 subtable" s a m o s a
EndChar

StartChar: uniE368
Encoding: 58216 58216 101
Width: 1024
Flags: W
LayerCount: 2
Fore
SplineSet
405.5 566 m 128,-1,1
 391 566 391 566 390.5 556 c 128,-1,2
 390 546 390 546 405 546 c 128,-1,3
 420 546 420 546 420 556 c 128,-1,0
 420 566 420 566 405.5 566 c 128,-1,1
675 560 m 128,-1,5
 665 560 665 560 665 552 c 128,-1,6
 665 544 665 544 675 544 c 128,-1,7
 685 544 685 544 685 552 c 128,-1,4
 685 560 685 560 675 560 c 128,-1,5
741 350 m 128,-1,9
 751 350 751 350 751 360 c 128,-1,10
 751 370 751 370 741 370 c 128,-1,11
 731 370 731 370 731 360 c 128,-1,8
 731 350 731 350 741 350 c 128,-1,9
731 350 m 1,12,-1
 731 350 l 1025,13,-1
509 360 m 128,-1,15
 519 360 519 360 519 370 c 128,-1,16
 519 380 519 380 509 380 c 128,-1,17
 499 380 499 380 499 370 c 128,-1,14
 499 360 499 360 509 360 c 128,-1,15
499 360 m 1,18,-1
 499 360 l 1025,19,-1
362 378 m 2,20,21
 364 378 l 2,22,23
 379 378 379 378 379 374 c 128,-1,24
 379 370 379 370 364 371 c 2,25,-1
 362 371 l 2,26,27
 347 370 347 370 347 374 c 128,-1,28
 347 378 347 378 362 378 c 2,20,21
330 519 m 128,-1,30
 330 559 330 559 358 587 c 128,-1,31
 386 615 386 615 426 615 c 128,-1,32
 466 615 466 615 494 587 c 128,-1,33
 522 559 522 559 522 519 c 128,-1,34
 522 479 522 479 494 451 c 128,-1,35
 466 423 466 423 426 423 c 128,-1,36
 386 423 386 423 358 451 c 128,-1,29
 330 479 330 479 330 519 c 128,-1,30
528 509 m 128,-1,38
 528 549 528 549 556 577 c 128,-1,39
 584 605 584 605 624 605 c 128,-1,40
 664 605 664 605 692 577 c 128,-1,41
 720 549 720 549 720 509 c 128,-1,42
 720 469 720 469 692 441 c 128,-1,43
 664 413 664 413 624 413 c 128,-1,44
 584 413 584 413 556 441 c 128,-1,37
 528 469 528 469 528 509 c 128,-1,38
644 342 m 128,-1,46
 644 382 644 382 672 410 c 128,-1,47
 700 438 700 438 740 438 c 128,-1,48
 780 438 780 438 808 410 c 128,-1,49
 836 382 836 382 836 342 c 128,-1,50
 836 302 836 302 808 274 c 128,-1,51
 780 246 780 246 740 246 c 128,-1,52
 700 246 700 246 672 274 c 128,-1,45
 644 302 644 302 644 342 c 128,-1,46
441 328 m 128,-1,54
 441 368 441 368 469 396 c 128,-1,55
 497 424 497 424 537 424 c 128,-1,56
 577 424 577 424 605 396 c 128,-1,57
 633 368 633 368 633 328 c 128,-1,58
 633 288 633 288 605 260 c 128,-1,59
 577 232 577 232 537 232 c 128,-1,60
 497 232 497 232 469 260 c 128,-1,53
 441 288 441 288 441 328 c 128,-1,54
245 342 m 128,-1,62
 245 302 245 302 273 274 c 128,-1,63
 301 246 301 246 341 246 c 128,-1,64
 381 246 381 246 409 274 c 128,-1,65
 437 302 437 302 437 342 c 128,-1,66
 437 382 437 382 409 410 c 128,-1,67
 381 438 381 438 341 438 c 128,-1,68
 301 438 301 438 273 410 c 128,-1,61
 245 382 245 382 245 342 c 128,-1,62
EndSplineSet
EndChar

StartChar: uniE369
Encoding: 58217 58217 102
Width: 1021
Flags: W
LayerCount: 2
Back
SplineSet
616.8671875 238.200195312 m 132,-1,1
 616.8671875 273.091933587 616.8671875 273.091933587 639.285190629 297.845771481 c 132,-1,2
 661.703193758 322.599609375 661.703193758 322.599609375 693.267578125 322.599609375 c 132,-1,3
 724.831962492 322.599609375 724.831962492 322.599609375 747.249965621 297.845771481 c 132,-1,4
 769.66796875 273.091933587 769.66796875 273.091933587 769.66796875 238.200195312 c 132,-1,5
 769.66796875 203.308364268 769.66796875 203.308364268 747.249923544 178.554084478 c 132,-1,6
 724.831878338 153.799804688 724.831878338 153.799804688 693.267578125 153.799804688 c 132,-1,7
 661.703277912 153.799804688 661.703277912 153.799804688 639.285232706 178.554084478 c 132,-1,8
 616.8671875 203.308364268 616.8671875 203.308364268 616.8671875 238.200195312 c 132,-1,1
620.8671875 238.200195312 m 132,-1,9
 620.8671875 204.834000258 620.8671875 204.834000258 642.184902814 181.316902473 c 132,-1,10
 663.502618129 157.799804688 663.502618129 157.799804688 693.267578125 157.799804688 c 132,-1,11
 723.031974717 157.799804688 723.031974717 157.799804688 744.349971734 181.316995085 c 132,-1,12
 765.66796875 204.834185481 765.66796875 204.834185481 765.66796875 238.200195312 c 132,-1,13
 765.66796875 271.56554896 765.66796875 271.56554896 744.349937684 295.082579168 c 132,-1,14
 723.031906619 318.599609375 723.031906619 318.599609375 693.267578125 318.599609375 c 132,-1,15
 663.502686227 318.599609375 663.502686227 318.599609375 642.184936863 295.082671779 c 132,-1,16
 620.8671875 271.565734183 620.8671875 271.565734183 620.8671875 238.200195312 c 132,-1,9
364.8671875 242.967773438 m 132,-1,17
 364.8671875 291.19921875 364.8671875 291.19921875 399.3515625 325.68359375 c 132,-1,18
 433.8359375 360.16796875 433.8359375 360.16796875 482.067382812 360.16796875 c 132,-1,19
 530.298828125 360.16796875 530.298828125 360.16796875 564.783203125 325.68359375 c 132,-1,20
 599.267578125 291.19921875 599.267578125 291.19921875 599.267578125 242.967773438 c 132,-1,21
 599.267578125 194.736328125 599.267578125 194.736328125 564.783203125 160.251953125 c 132,-1,22
 530.298828125 125.767578125 530.298828125 125.767578125 482.067382812 125.767578125 c 132,-1,23
 433.8359375 125.767578125 433.8359375 125.767578125 399.3515625 160.251953125 c 132,-1,24
 364.8671875 194.736328125 364.8671875 194.736328125 364.8671875 242.967773438 c 132,-1,17
368.8671875 242.967773438 m 132,-1,25
 368.8671875 196.399490003 368.8671875 196.399490003 402.182945428 163.083534064 c 132,-1,26
 435.498703356 129.767578125 435.498703356 129.767578125 482.067382812 129.767578125 c 132,-1,27
 528.63606227 129.767578125 528.63606227 129.767578125 561.951820197 163.083534064 c 132,-1,28
 595.267578125 196.399490003 595.267578125 196.399490003 595.267578125 242.967773438 c 132,-1,29
 595.267578125 289.536621094 595.267578125 289.536621094 561.951904297 322.852294922 c 132,-1,30
 528.636230469 356.16796875 528.636230469 356.16796875 482.067382812 356.16796875 c 132,-1,31
 435.498535156 356.16796875 435.498535156 356.16796875 402.182861328 322.852294922 c 132,-1,32
 368.8671875 289.536621094 368.8671875 289.536621094 368.8671875 242.967773438 c 132,-1,25
217.673828125 405 m 5,32,33
 218.202828531 314.679787135 218.202828531 314.679787135 262.990315715 238.227889492 c 132,-1,34
 307.777802898 161.775991849 307.777802898 161.775991849 384.514892619 117.387995925 c 132,-1,35
 461.251982341 73 461.251982341 73 551.66796875 73 c 132,-1,35
 642.083474784 73 642.083474784 73 718.820393864 117.387995949 c 132,-1,36
 795.557312943 161.775991898 795.557312943 161.775991898 840.344970719 238.227889468 c 132,-1,37
 885.132628496 314.679787037 885.132628496 314.679787037 885.662109375 405 c 5,36,-1
 217.673828125 405 l 5,32,33
546.8671875 753 m 4,37,38
 615.400534961 753 615.400534961 753 676.945099714 727.074977172 c 132,-1,39
 738.489664468 701.149954344 738.489664468 701.149954344 785.2265625 654.666992188 c 4,39,40
 1078.06738281 654.599609375 l 6,42,43
 1079.26557616 654.599609375 1079.26557616 654.599609375 1081.19042969 658.688476562 c 4,44,45
 1082.17066232 660.771525062 1082.17066232 660.771525062 1083.00416115 663.316138994 c 132,-1,46
 1083.83765997 665.860752927 1083.83765997 665.860752927 1084.68333885 668.876569339 c 132,-1,47
 1085.52901773 671.892385752 1085.52901773 671.892385752 1086.03613281 673.416992188 c 4,46,47
 1086.7639974 675.600585938 1086.7639974 675.600585938 1088.32910156 675.600585938 c 4,48,49
 1090.49511719 675.600585938 1090.49511719 675.600585938 1090.49511719 673.272460938 c 4,50,51
 1090.46777344 672.727905273 1090.46777344 672.727905273 1090.46777344 672.599609375 c 6,52,-1
 1090.46777344 419.799804688 l 6,53,54
 1090.46777344 414.152099609 1090.46777344 414.152099609 1086.29162598 409.975952149 c 132,-1,55
 1082.11547852 405.799804688 1082.11547852 405.799804688 1076.46777344 405.799804688 c 6,55,-1
 889.665039062 405.799804688 l 5,56,57
 889.347001581 314.223266079 889.347001581 314.223266079 844.063214859 236.655588655 c 132,-1,58
 798.779428136 159.087911231 798.779428136 159.087911231 721.040626287 114.043955615 c 132,-1,59
 643.301824439 69 643.301824439 69 551.66796875 69 c 132,-1,59
 460.033653425 69 460.033653425 69 382.294626611 114.043964465 c 132,-1,60
 304.555599798 159.087928931 304.555599798 159.087928931 259.271779638 236.655579805 c 132,-1,61
 213.987959479 314.223230679 213.987959479 314.223230679 213.669921875 405.799804688 c 5,60,-1
 14.0673828125 405.799804688 l 6,61,62
 8.41967773429 405.799804688 8.41967773429 405.799804688 4.24353027339 409.975952149 c 132,-1,63
 0.0673828125 414.15209961 0.0673828125 414.15209961 0.0673828125 419.799804688 c 6,63,-1
 0.0673828125 672.599609375 l 6,64,65
 0 675.600585938 0 675.600585938 2.3095703125 675.600585938 c 4,68,69
 3.79576553229 675.600585938 3.79576553229 675.600585938 4.951171875 673.330078125 c 4,70,71
 14.501452743 654.599609375 14.501452743 654.599609375 15.66796875 654.599609375 c 6,72,-1
 315.64453125 654.599609375 l 5,73,74
 313.66796875 654.644654642 313.66796875 654.644654642 313.66796875 656.599609375 c 4,77,78
 313.66796875 657.450861494 313.66796875 657.450861494 314.280273438 658.041015625 c 4,79,80
 412.896465153 753 412.896465153 753 546.8671875 753 c 4,37,38
779.040039062 655.1328125 m 5,81,82
 681.972331911 749 681.972331911 749 546.8671875 749 c 4,83,84
 417.165743063 749 417.165743063 749 320.5625 658.4921875 c 5,85,86
 449.215358709 655.682855654 449.215358709 655.682855654 571.188476562 654.599609375 c 6,87,-1
 749.962890625 654.599609375 l 6,88,89
 765.531676504 654.817458976 765.531676504 654.817458976 779.040039062 655.1328125 c 5,81,82
1086.46777344 661.053710938 m 5,90,91
 1082.72002751 650.599609375 1082.72002751 650.599609375 1078.06738281 650.599609375 c 6,92,-1
 749.995117188 650.599609375 l 6,93,94
 715.365011994 650.1171875 715.365011994 650.1171875 670.489257812 650.1171875 c 132,-1,96
 625.648460152 650.1171875 625.648460152 650.1171875 571.165039062 650.599609375 c 6,97,-1
 15.66796875 650.599609375 l 6,98,99
 10.2215932609 650.599609375 10.2215932609 650.599609375 4.0673828125 665.404296875 c 5,100,-1
 4.0673828125 419.799804688 l 6,101,102
 4.0673828125 415.84765625 4.0673828125 415.84765625 7.09130859375 412.823730469 c 132,-1,103
 10.115234375 409.799804688 10.115234375 409.799804688 14.0673828125 409.799804688 c 6,103,-1
 1076.46777344 409.799804688 l 6,104,105
 1080.41992188 409.799804688 1080.41992188 409.799804688 1083.44384766 412.823730469 c 132,-1,106
 1086.46777344 415.84765625 1086.46777344 415.84765625 1086.46777344 419.799804688 c 6,106,-1
 1086.46777344 661.053710938 l 5,90,91
EndSplineSet
Fore
SplineSet
388.116210938 237.033203125 m 4,0,1
 388.116210938 279.463039233 388.116210938 279.463039233 415.156769879 309.11579696 c 132,-1,2
 442.197328819 338.768554688 442.197328819 338.768554688 481.428710938 338.768554688 c 132,-1,3
 520.84573396 338.768554688 520.84573396 338.768554688 548.765152136 309.014404233 c 132,-1,4
 576.684570312 279.260253779 576.684570312 279.260253779 576.684570312 237.033203125 c 4,5,6
 576.684570312 194.603271484 576.684570312 194.603271484 549.643968708 164.950073242 c 132,-1,7
 522.603367105 135.296875 522.603367105 135.296875 483.372070312 135.296875 c 132,-1,8
 443.955135089 135.296875 443.955135089 135.296875 416.035673013 165.051467315 c 132,-1,9
 388.116210938 194.806059631 388.116210938 194.806059631 388.116210938 237.033203125 c 4,0,1
884.799804688 699.799804688 m 1025,10,-1
859.200195312 588.599609375 m 128,-1,12
 859.200195312 594.200195312 859.200195312 594.200195312 862.399414062 598.200195312 c 128,-1,13
 865.599609375 602.200195312 865.599609375 602.200195312 869.599609375 602.200195312 c 128,-1,14
 873.599609375 602.200195312 873.599609375 602.200195312 876.799804688 598.200195312 c 128,-1,15
 880 594.200195312 880 594.200195312 880 588.599609375 c 128,-1,16
 880 583 880 583 876.799804688 579 c 128,-1,17
 873.599609375 575 873.599609375 575 869.599609375 575 c 128,-1,18
 865.599609375 575 865.599609375 575 862.399414062 579 c 128,-1,11
 859.200195312 583 859.200195312 583 859.200195312 588.599609375 c 128,-1,12
927.200195312 516.599609375 m 128,-1,20
 927.200195312 520.599609375 927.200195312 520.599609375 931.200195312 523.799804688 c 128,-1,21
 935.200195312 527 935.200195312 527 940.799804688 527 c 128,-1,22
 946.399414062 527 946.399414062 527 950.399414062 523.799804688 c 128,-1,23
 954.399414062 520.599609375 954.399414062 520.599609375 954.399414062 516.599609375 c 128,-1,24
 954.399414062 512.599609375 954.399414062 512.599609375 950.399414062 509.400390625 c 128,-1,25
 946.399414062 506.200195312 946.399414062 506.200195312 940.799804688 506.200195312 c 128,-1,26
 935.200195312 506.200195312 935.200195312 506.200195312 931.200195312 509.400390625 c 128,-1,19
 927.200195312 512.599609375 927.200195312 512.599609375 927.200195312 516.599609375 c 128,-1,20
988 575 m 128,-1,28
 988 582.200195312 988 582.200195312 992.799804688 587 c 128,-1,29
 997.599609375 591.799804688 997.599609375 591.799804688 1004.79980469 591.799804688 c 128,-1,30
 1012 591.799804688 1012 591.799804688 1016.79980469 587 c 128,-1,31
 1021.59960938 582.200195312 1021.59960938 582.200195312 1021.59960938 575 c 128,-1,32
 1021.59960938 567.799804688 1021.59960938 567.799804688 1016.79980469 563 c 128,-1,33
 1012 558.200195312 1012 558.200195312 1004.79980469 558.200195312 c 128,-1,34
 997.599609375 558.200195312 997.599609375 558.200195312 992.799804688 563 c 128,-1,27
 988 567.799804688 988 567.799804688 988 575 c 128,-1,28
924 627 m 128,-1,36
 924 634.200195312 924 634.200195312 928.799804688 639 c 128,-1,37
 933.599609375 643.799804688 933.599609375 643.799804688 940.799804688 643.799804688 c 128,-1,38
 948 643.799804688 948 643.799804688 952.799804688 639 c 128,-1,39
 957.599609375 634.200195312 957.599609375 634.200195312 957.599609375 627 c 128,-1,40
 957.599609375 619.799804688 957.599609375 619.799804688 952.799804688 615 c 128,-1,41
 948 610.200195312 948 610.200195312 940.799804688 610.200195312 c 128,-1,42
 933.599609375 610.200195312 933.599609375 610.200195312 928.799804688 615 c 128,-1,35
 924 619.799804688 924 619.799804688 924 627 c 128,-1,36
619.200195312 564.599609375 m 128,-1,44
 619.200195312 570.200195312 619.200195312 570.200195312 622.399414062 574.200195312 c 128,-1,45
 625.599609375 578.200195312 625.599609375 578.200195312 629.599609375 578.200195312 c 128,-1,46
 633.599609375 578.200195312 633.599609375 578.200195312 636.799804688 574.200195312 c 128,-1,47
 640 570.200195312 640 570.200195312 640 564.599609375 c 128,-1,48
 640 559 640 559 636.799804688 555 c 128,-1,49
 633.599609375 551 633.599609375 551 629.599609375 551 c 128,-1,50
 625.599609375 551 625.599609375 551 622.399414062 555 c 128,-1,43
 619.200195312 559 619.200195312 559 619.200195312 564.599609375 c 128,-1,44
687.200195312 492.599609375 m 128,-1,52
 687.200195312 496.599609375 687.200195312 496.599609375 691.200195312 499.799804688 c 128,-1,53
 695.200195312 503 695.200195312 503 700.799804688 503 c 128,-1,54
 706.399414062 503 706.399414062 503 710.399414062 499.799804688 c 128,-1,55
 714.399414062 496.599609375 714.399414062 496.599609375 714.399414062 492.599609375 c 128,-1,56
 714.399414062 488.599609375 714.399414062 488.599609375 710.399414062 485.400390625 c 128,-1,57
 706.399414062 482.200195312 706.399414062 482.200195312 700.799804688 482.200195312 c 128,-1,58
 695.200195312 482.200195312 695.200195312 482.200195312 691.200195312 485.400390625 c 128,-1,51
 687.200195312 488.599609375 687.200195312 488.599609375 687.200195312 492.599609375 c 128,-1,52
748 551 m 128,-1,60
 748 558.200195312 748 558.200195312 752.799804688 563 c 128,-1,61
 757.599609375 567.799804688 757.599609375 567.799804688 764.799804688 567.799804688 c 128,-1,62
 772 567.799804688 772 567.799804688 776.799804688 563 c 128,-1,63
 781.599609375 558.200195312 781.599609375 558.200195312 781.599609375 551 c 128,-1,64
 781.599609375 543.799804688 781.599609375 543.799804688 776.799804688 539 c 128,-1,65
 772 534.200195312 772 534.200195312 764.799804688 534.200195312 c 128,-1,66
 757.599609375 534.200195312 757.599609375 534.200195312 752.799804688 539 c 128,-1,59
 748 543.799804688 748 543.799804688 748 551 c 128,-1,60
684 603 m 128,-1,68
 684 610.200195312 684 610.200195312 688.799804688 615 c 128,-1,69
 693.599609375 619.799804688 693.599609375 619.799804688 700.799804688 619.799804688 c 128,-1,70
 708 619.799804688 708 619.799804688 712.799804688 615 c 128,-1,71
 717.599609375 610.200195312 717.599609375 610.200195312 717.599609375 603 c 128,-1,72
 717.599609375 595.799804688 717.599609375 595.799804688 712.799804688 591 c 128,-1,73
 708 586.200195312 708 586.200195312 700.799804688 586.200195312 c 128,-1,74
 693.599609375 586.200195312 693.599609375 586.200195312 688.799804688 591 c 128,-1,67
 684 595.799804688 684 595.799804688 684 603 c 128,-1,68
705.599609375 564.599609375 m 128,-1,76
 705.599609375 570.200195312 705.599609375 570.200195312 708.799804688 574.200195312 c 128,-1,77
 712 578.200195312 712 578.200195312 716 578.200195312 c 128,-1,78
 720 578.200195312 720 578.200195312 723.200195312 574.200195312 c 128,-1,79
 726.399414062 570.200195312 726.399414062 570.200195312 726.399414062 564.599609375 c 128,-1,80
 726.399414062 559 726.399414062 559 723.200195312 555 c 128,-1,81
 720 551 720 551 716 551 c 128,-1,82
 712 551 712 551 708.799804688 555 c 128,-1,75
 705.599609375 559 705.599609375 559 705.599609375 564.599609375 c 128,-1,76
773.599609375 492.599609375 m 128,-1,84
 773.599609375 496.599609375 773.599609375 496.599609375 777.599609375 499.799804688 c 128,-1,85
 781.599609375 503 781.599609375 503 787.200195312 503 c 128,-1,86
 792.799804688 503 792.799804688 503 796.799804688 499.799804688 c 128,-1,87
 800.799804688 496.599609375 800.799804688 496.599609375 800.799804688 492.599609375 c 128,-1,88
 800.799804688 488.599609375 800.799804688 488.599609375 796.799804688 485.400390625 c 128,-1,89
 792.799804688 482.200195312 792.799804688 482.200195312 787.200195312 482.200195312 c 128,-1,90
 781.599609375 482.200195312 781.599609375 482.200195312 777.599609375 485.400390625 c 128,-1,83
 773.599609375 488.599609375 773.599609375 488.599609375 773.599609375 492.599609375 c 128,-1,84
834.399414062 551 m 128,-1,92
 834.399414062 558.200195312 834.399414062 558.200195312 839.200195312 563 c 128,-1,93
 844 567.799804688 844 567.799804688 851.200195312 567.799804688 c 128,-1,94
 858.399414062 567.799804688 858.399414062 567.799804688 863.200195312 563 c 128,-1,95
 868 558.200195312 868 558.200195312 868 551 c 128,-1,96
 868 543.799804688 868 543.799804688 863.200195312 539 c 128,-1,97
 858.399414062 534.200195312 858.399414062 534.200195312 851.200195312 534.200195312 c 128,-1,98
 844 534.200195312 844 534.200195312 839.200195312 539 c 128,-1,91
 834.399414062 543.799804688 834.399414062 543.799804688 834.399414062 551 c 128,-1,92
770.399414062 603 m 128,-1,100
 770.399414062 610.200195312 770.399414062 610.200195312 775.200195312 615 c 128,-1,101
 780 619.799804688 780 619.799804688 787.200195312 619.799804688 c 128,-1,102
 794.399414062 619.799804688 794.399414062 619.799804688 799.200195312 615 c 128,-1,103
 804 610.200195312 804 610.200195312 804 603 c 128,-1,104
 804 595.799804688 804 595.799804688 799.200195312 591 c 128,-1,105
 794.399414062 586.200195312 794.399414062 586.200195312 787.200195312 586.200195312 c 128,-1,106
 780 586.200195312 780 586.200195312 775.200195312 591 c 128,-1,99
 770.399414062 595.799804688 770.399414062 595.799804688 770.399414062 603 c 128,-1,100
465.599609375 540.599609375 m 128,-1,108
 465.599609375 546.200195312 465.599609375 546.200195312 468.799804688 550.200195312 c 128,-1,109
 472 554.200195312 472 554.200195312 476 554.200195312 c 128,-1,110
 480 554.200195312 480 554.200195312 483.200195312 550.200195312 c 128,-1,111
 486.399414062 546.200195312 486.399414062 546.200195312 486.399414062 540.599609375 c 128,-1,112
 486.399414062 535 486.399414062 535 483.200195312 531 c 128,-1,113
 480 527 480 527 476 527 c 128,-1,114
 472 527 472 527 468.799804688 531 c 128,-1,107
 465.599609375 535 465.599609375 535 465.599609375 540.599609375 c 128,-1,108
533.599609375 468.599609375 m 128,-1,116
 533.599609375 472.599609375 533.599609375 472.599609375 537.599609375 475.799804688 c 128,-1,117
 541.599609375 479 541.599609375 479 547.200195312 479 c 128,-1,118
 552.799804688 479 552.799804688 479 556.799804688 475.799804688 c 128,-1,119
 560.799804688 472.599609375 560.799804688 472.599609375 560.799804688 468.599609375 c 128,-1,120
 560.799804688 464.599609375 560.799804688 464.599609375 556.799804688 461.400390625 c 128,-1,121
 552.799804688 458.200195312 552.799804688 458.200195312 547.200195312 458.200195312 c 128,-1,122
 541.599609375 458.200195312 541.599609375 458.200195312 537.599609375 461.400390625 c 128,-1,115
 533.599609375 464.599609375 533.599609375 464.599609375 533.599609375 468.599609375 c 128,-1,116
594.399414062 527 m 128,-1,124
 594.399414062 534.200195312 594.399414062 534.200195312 599.200195312 539 c 128,-1,125
 604 543.799804688 604 543.799804688 611.200195312 543.799804688 c 128,-1,126
 618.399414062 543.799804688 618.399414062 543.799804688 623.200195312 539 c 128,-1,127
 628 534.200195312 628 534.200195312 628 527 c 128,-1,128
 628 519.799804688 628 519.799804688 623.200195312 515 c 128,-1,129
 618.399414062 510.200195312 618.399414062 510.200195312 611.200195312 510.200195312 c 128,-1,130
 604 510.200195312 604 510.200195312 599.200195312 515 c 128,-1,123
 594.399414062 519.799804688 594.399414062 519.799804688 594.399414062 527 c 128,-1,124
530.399414062 579 m 128,-1,132
 530.399414062 586.200195312 530.399414062 586.200195312 535.200195312 591 c 128,-1,133
 540 595.799804688 540 595.799804688 547.200195312 595.799804688 c 128,-1,134
 554.399414062 595.799804688 554.399414062 595.799804688 559.200195312 591 c 128,-1,135
 564 586.200195312 564 586.200195312 564 579 c 128,-1,136
 564 571.799804688 564 571.799804688 559.200195312 567 c 128,-1,137
 554.399414062 562.200195312 554.399414062 562.200195312 547.200195312 562.200195312 c 128,-1,138
 540 562.200195312 540 562.200195312 535.200195312 567 c 128,-1,131
 530.399414062 571.799804688 530.399414062 571.799804688 530.399414062 579 c 128,-1,132
240 588.599609375 m 128,-1,140
 240 594.200195312 240 594.200195312 243.200195312 598.200195312 c 128,-1,141
 246.399414062 602.200195312 246.399414062 602.200195312 250.399414062 602.200195312 c 128,-1,142
 254.399414062 602.200195312 254.399414062 602.200195312 257.599609375 598.200195312 c 128,-1,143
 260.799804688 594.200195312 260.799804688 594.200195312 260.799804688 588.599609375 c 128,-1,144
 260.799804688 583 260.799804688 583 257.599609375 579 c 128,-1,145
 254.399414062 575 254.399414062 575 250.399414062 575 c 128,-1,146
 246.399414062 575 246.399414062 575 243.200195312 579 c 128,-1,139
 240 583 240 583 240 588.599609375 c 128,-1,140
308 516.599609375 m 128,-1,148
 308 520.599609375 308 520.599609375 312 523.799804688 c 128,-1,149
 316 527 316 527 321.599609375 527 c 128,-1,150
 327.200195312 527 327.200195312 527 331.200195312 523.799804688 c 128,-1,151
 335.200195312 520.599609375 335.200195312 520.599609375 335.200195312 516.599609375 c 128,-1,152
 335.200195312 512.599609375 335.200195312 512.599609375 331.200195312 509.400390625 c 128,-1,153
 327.200195312 506.200195312 327.200195312 506.200195312 321.599609375 506.200195312 c 128,-1,154
 316 506.200195312 316 506.200195312 312 509.400390625 c 128,-1,147
 308 512.599609375 308 512.599609375 308 516.599609375 c 128,-1,148
368.799804688 575 m 128,-1,156
 368.799804688 582.200195312 368.799804688 582.200195312 373.599609375 587 c 128,-1,157
 378.399414062 591.799804688 378.399414062 591.799804688 385.599609375 591.799804688 c 128,-1,158
 392.799804688 591.799804688 392.799804688 591.799804688 397.599609375 587 c 128,-1,159
 402.399414062 582.200195312 402.399414062 582.200195312 402.399414062 575 c 128,-1,160
 402.399414062 567.799804688 402.399414062 567.799804688 397.599609375 563 c 128,-1,161
 392.799804688 558.200195312 392.799804688 558.200195312 385.599609375 558.200195312 c 128,-1,162
 378.399414062 558.200195312 378.399414062 558.200195312 373.599609375 563 c 128,-1,155
 368.799804688 567.799804688 368.799804688 567.799804688 368.799804688 575 c 128,-1,156
304.799804688 627 m 128,-1,164
 304.799804688 634.200195312 304.799804688 634.200195312 309.599609375 639 c 128,-1,165
 314.399414062 643.799804688 314.399414062 643.799804688 321.599609375 643.799804688 c 128,-1,166
 328.799804688 643.799804688 328.799804688 643.799804688 333.599609375 639 c 128,-1,167
 338.399414062 634.200195312 338.399414062 634.200195312 338.399414062 627 c 128,-1,168
 338.399414062 619.799804688 338.399414062 619.799804688 333.599609375 615 c 128,-1,169
 328.799804688 610.200195312 328.799804688 610.200195312 321.599609375 610.200195312 c 128,-1,170
 314.399414062 610.200195312 314.399414062 610.200195312 309.599609375 615 c 128,-1,163
 304.799804688 619.799804688 304.799804688 619.799804688 304.799804688 627 c 128,-1,164
0 564.599609375 m 128,-1,172
 0 570.200195312 0 570.200195312 3.2001953125 574.200195312 c 128,-1,173
 6.3994140625 578.200195312 6.3994140625 578.200195312 10.3994140625 578.200195312 c 128,-1,174
 14.3994140625 578.200195312 14.3994140625 578.200195312 17.599609375 574.200195312 c 128,-1,175
 20.7998046875 570.200195312 20.7998046875 570.200195312 20.7998046875 564.599609375 c 128,-1,176
 20.7998046875 559 20.7998046875 559 17.599609375 555 c 128,-1,177
 14.3994140625 551 14.3994140625 551 10.3994140625 551 c 128,-1,178
 6.3994140625 551 6.3994140625 551 3.2001953125 555 c 128,-1,171
 0 559 0 559 0 564.599609375 c 128,-1,172
68 492.599609375 m 128,-1,180
 68 496.599609375 68 496.599609375 72 499.799804688 c 128,-1,181
 76 503 76 503 81.599609375 503 c 128,-1,182
 87.2001953125 503 87.2001953125 503 91.2001953125 499.799804688 c 128,-1,183
 95.2001953125 496.599609375 95.2001953125 496.599609375 95.2001953125 492.599609375 c 128,-1,184
 95.2001953125 488.599609375 95.2001953125 488.599609375 91.2001953125 485.400390625 c 128,-1,185
 87.2001953125 482.200195312 87.2001953125 482.200195312 81.599609375 482.200195312 c 128,-1,186
 76 482.200195312 76 482.200195312 72 485.400390625 c 128,-1,179
 68 488.599609375 68 488.599609375 68 492.599609375 c 128,-1,180
128.799804688 551 m 128,-1,188
 128.799804688 558.200195312 128.799804688 558.200195312 133.599609375 563 c 128,-1,189
 138.399414062 567.799804688 138.399414062 567.799804688 145.599609375 567.799804688 c 128,-1,190
 152.799804688 567.799804688 152.799804688 567.799804688 157.599609375 563 c 128,-1,191
 162.399414062 558.200195312 162.399414062 558.200195312 162.399414062 551 c 128,-1,192
 162.399414062 543.799804688 162.399414062 543.799804688 157.599609375 539 c 128,-1,193
 152.799804688 534.200195312 152.799804688 534.200195312 145.599609375 534.200195312 c 128,-1,194
 138.399414062 534.200195312 138.399414062 534.200195312 133.599609375 539 c 128,-1,187
 128.799804688 543.799804688 128.799804688 543.799804688 128.799804688 551 c 128,-1,188
64.7998046875 603 m 128,-1,196
 64.7998046875 610.200195312 64.7998046875 610.200195312 69.599609375 615 c 128,-1,197
 74.3994140625 619.799804688 74.3994140625 619.799804688 81.599609375 619.799804688 c 128,-1,198
 88.7998046875 619.799804688 88.7998046875 619.799804688 93.599609375 615 c 128,-1,199
 98.3994140625 610.200195312 98.3994140625 610.200195312 98.3994140625 603 c 128,-1,200
 98.3994140625 595.799804688 98.3994140625 595.799804688 93.599609375 591 c 128,-1,201
 88.7998046875 586.200195312 88.7998046875 586.200195312 81.599609375 586.200195312 c 128,-1,202
 74.3994140625 586.200195312 74.3994140625 586.200195312 69.599609375 591 c 128,-1,195
 64.7998046875 595.799804688 64.7998046875 595.799804688 64.7998046875 603 c 128,-1,196
EndSplineSet
LCarets2: 3 0 0 0
EndChar

StartChar: uniE36A
Encoding: 58218 58218 103
Width: 1024
Flags: W
LayerCount: 2
Fore
SplineSet
449.200195312 398 m 132,-1,1
 449.200195312 357.75626763 449.200195312 357.75626763 478.771287836 329.278036159 c 128,-1,2
 508.342380359 300.799804688 508.342380359 300.799804688 550 300.799804688 c 128,-1,3
 591.657619641 300.799804688 591.657619641 300.799804688 621.228712164 329.278036159 c 128,-1,4
 650.799804688 357.75626763 650.799804688 357.75626763 650.799804688 398 c 128,-1,5
 650.799804688 438.24373237 650.799804688 438.24373237 621.228712164 466.721963841 c 128,-1,6
 591.657619641 495.200195312 591.657619641 495.200195312 550 495.200195312 c 128,-1,7
 508.342380359 495.200195312 508.342380359 495.200195312 478.771287836 466.721963841 c 128,-1,0
 449.200195312 438.24373237 449.200195312 438.24373237 449.200195312 398 c 132,-1,1
214 398 m 132,-1,9
 214 532 214 532 312.5 627 c 128,-1,10
 411 722 411 722 550 722 c 128,-1,11
 689 722 689 722 787.5 627 c 128,-1,12
 886 532 886 532 886 398 c 128,-1,13
 886 264 886 264 787.5 169 c 128,-1,14
 689 74 689 74 550 74 c 128,-1,15
 411 74 411 74 312.5 169 c 128,-1,8
 214 264 214 264 214 398 c 132,-1,9
EndSplineSet
EndChar

StartChar: uniE36B
Encoding: 58219 58219 104
Width: 1024
Flags: W
LayerCount: 2
Fore
SplineSet
863 531 m 5,0,1
 857 528 857 528 851.5 528 c 128,-1,2
 846 528 846 528 837 529.5 c 128,-1,3
 828 531 828 531 825 531 c 0,4,5
 787 534 787 534 785 535 c 0,6,7
 784 535 784 535 755 529 c 1,8,-1
 695 529 l 1,9,-1
 579 531 l 1,10,-1
 531 519 l 1,11,-1
 467 513 l 1,12,13
 443.74405007 506.407379095 443.74405007 506.407379095 441.685329861 503.650824653 c 0,14,15
 440.464255592 502.015848863 440.464255592 502.015848863 446.309293514 501.388449519 c 0,16,17
 450.113532332 500.980107097 450.113532332 500.980107097 485 501 c 0,18,19
 506 501 506 501 546 496 c 128,-1,20
 586 491 586 491 606.5 490.5 c 128,-1,21
 627 490 627 490 665 499 c 1,22,23
 802 547 802 547 865 518 c 0,24,25
 866 518 866 518 865 521 c 128,-1,26
 864 524 864 524 863 527 c 128,-1,27
 862 530 862 530 863 531 c 5,0,1
201 455 m 132,-1,29
 201 445 201 445 206.5 438 c 128,-1,30
 212 431 212 431 219 431 c 128,-1,31
 226 431 226 431 231.5 438 c 128,-1,32
 237 445 237 445 237 455 c 128,-1,33
 237 465 237 465 231.5 472 c 128,-1,34
 226 479 226 479 219 479 c 128,-1,35
 212 479 212 479 206.5 472 c 128,-1,28
 201 465 201 465 201 455 c 132,-1,29
209 523 m 132,-1,37
 209 511 209 511 221 511 c 128,-1,38
 233 511 233 511 233 523 c 128,-1,39
 233 535 233 535 221 535 c 128,-1,36
 209 535 209 535 209 523 c 132,-1,37
337 417 m 132,-1,41
 337 401 337 401 353 401 c 128,-1,42
 369 401 369 401 369 417 c 128,-1,43
 369 433 369 433 353 433 c 128,-1,40
 337 433 337 433 337 417 c 132,-1,41
453 457 m 4,44,45
 435 457 435 457 435 443 c 128,-1,46
 435 429 435 429 453 429 c 1024,47,-1
360 492 m 132,-1,49
 360 474 360 474 376 474 c 128,-1,50
 392 474 392 474 392 492 c 128,-1,51
 392 510 392 510 376 510 c 128,-1,48
 360 510 360 510 360 492 c 132,-1,49
171 443 m 1156
551 335 m 132,-1,53
 551 325 551 325 556.5 318 c 128,-1,54
 562 311 562 311 569 311 c 128,-1,55
 576 311 576 311 581.5 318 c 128,-1,56
 587 325 587 325 587 335 c 128,-1,57
 587 345 587 345 581.5 352 c 128,-1,58
 576 359 576 359 569 359 c 128,-1,59
 562 359 562 359 556.5 352 c 128,-1,52
 551 345 551 345 551 335 c 132,-1,53
559 403 m 132,-1,61
 559 391 559 391 571 391 c 128,-1,62
 583 391 583 391 583 403 c 128,-1,63
 583 415 583 415 571 415 c 128,-1,60
 559 415 559 415 559 403 c 132,-1,61
687 297 m 132,-1,65
 687 281 687 281 703 281 c 128,-1,66
 719 281 719 281 719 297 c 128,-1,67
 719 313 719 313 703 313 c 128,-1,64
 687 313 687 313 687 297 c 132,-1,65
803 337 m 4,68,69
 785 337 785 337 785 323 c 128,-1,70
 785 309 785 309 803 309 c 1024,71,-1
710 372 m 132,-1,73
 710 354 710 354 726 354 c 128,-1,74
 742 354 742 354 742 372 c 128,-1,75
 742 390 742 390 726 390 c 128,-1,72
 710 390 710 390 710 372 c 132,-1,73
521 323 m 1156
651 335 m 132,-1,77
 651 325 651 325 656.5 318 c 128,-1,78
 662 311 662 311 669 311 c 128,-1,79
 676 311 676 311 681.5 318 c 128,-1,80
 687 325 687 325 687 335 c 128,-1,81
 687 345 687 345 681.5 352 c 128,-1,82
 676 359 676 359 669 359 c 128,-1,83
 662 359 662 359 656.5 352 c 128,-1,76
 651 345 651 345 651 335 c 132,-1,77
659 403 m 132,-1,85
 659 391 659 391 671 391 c 128,-1,86
 683 391 683 391 683 403 c 128,-1,87
 683 415 683 415 671 415 c 128,-1,84
 659 415 659 415 659 403 c 132,-1,85
351 335 m 132,-1,89
 351 325 351 325 356.5 318 c 128,-1,90
 362 311 362 311 369 311 c 128,-1,91
 376 311 376 311 381.5 318 c 128,-1,92
 387 325 387 325 387 335 c 128,-1,93
 387 345 387 345 381.5 352 c 128,-1,94
 376 359 376 359 369 359 c 128,-1,95
 362 359 362 359 356.5 352 c 128,-1,88
 351 345 351 345 351 335 c 132,-1,89
359 403 m 132,-1,97
 359 391 359 391 371 391 c 128,-1,98
 383 391 383 391 383 403 c 128,-1,99
 383 415 383 415 371 415 c 128,-1,96
 359 415 359 415 359 403 c 132,-1,97
487 297 m 132,-1,101
 487 281 487 281 503 281 c 128,-1,102
 519 281 519 281 519 297 c 128,-1,103
 519 313 519 313 503 313 c 128,-1,100
 487 313 487 313 487 297 c 132,-1,101
585 323 m 132,-1,105
 585 309 585 309 603 309 c 128,-1,106
 621 309 621 309 621 323 c 128,-1,107
 621 337 621 337 603 337 c 128,-1,104
 585 337 585 337 585 323 c 132,-1,105
510 372 m 132,-1,109
 510 354 510 354 526 354 c 128,-1,110
 542 354 542 354 542 372 c 128,-1,111
 542 390 542 390 526 390 c 128,-1,108
 510 390 510 390 510 372 c 132,-1,109
187 297 m 132,-1,113
 187 281 187 281 203 281 c 128,-1,114
 219 281 219 281 219 297 c 128,-1,115
 219 313 219 313 203 313 c 128,-1,112
 187 313 187 313 187 297 c 132,-1,113
51 335 m 132,-1,117
 51 325 51 325 56.5 318 c 128,-1,118
 62 311 62 311 69 311 c 128,-1,119
 76 311 76 311 81.5 318 c 128,-1,120
 87 325 87 325 87 335 c 128,-1,121
 87 345 87 345 81.5 352 c 128,-1,122
 76 359 76 359 69 359 c 128,-1,123
 62 359 62 359 56.5 352 c 128,-1,116
 51 345 51 345 51 335 c 132,-1,117
59 403 m 132,-1,125
 59 391 59 391 71 391 c 128,-1,126
 83 391 83 391 83 403 c 128,-1,127
 83 415 83 415 71 415 c 128,-1,124
 59 415 59 415 59 403 c 132,-1,125
285 323 m 132,-1,129
 285 309 285 309 303 309 c 128,-1,130
 321 309 321 309 321 323 c 128,-1,131
 321 337 321 337 303 337 c 128,-1,128
 285 337 285 337 285 323 c 132,-1,129
210 372 m 132,-1,133
 210 354 210 354 226 354 c 128,-1,134
 242 354 242 354 242 372 c 128,-1,135
 242 390 242 390 226 390 c 128,-1,132
 210 390 210 390 210 372 c 132,-1,133
67 527 m 5,136,-1
 138 460 l 1,137,-1
 135.5 457.5 l 2,138,139
 133 455 133 455 129.5 451 c 128,-1,140
 126 447 126 447 126 442 c 2,141,-1
 126 225 l 2,142,143
 126 222 126 222 128.230751759 216.442666114 c 0,144,145
 131 210 131 210 126 210 c 2,146,-1
 63 210 l 2,147,148
 57 210 57 210 52.5 214.5 c 128,-1,149
 48 219 48 219 48 225 c 2,150,-1
 52 512 l 2,151,152
 52 520 52 520 55.5 523.5 c 128,-1,153
 59 527 59 527 63 527 c 2,154,-1
 67 527 l 5,136,-1
77.5400390625 537 m 5,155,-1
 798 555 l 1,156,-1
 857 554 l 1,157,-1
 891.74609375 472 l 2,158,159
 894.215833013 466.171470869 894.215833013 466.171470869 891.236584164 461.585735435 c 128,-1,160
 888.257335315 457 888.257335315 457 882.206054688 457 c 2,161,-1
 147.206054688 457 l 2,162,163
 140.595583494 457 140.595583494 457 133.691604485 461.521892533 c 128,-1,164
 126.787625477 466.043785066 126.787625477 466.043785066 126.74609375 472 c 1,165,-1
 70 522 l 1,166,167
 67.6312572338 529.830729167 67.6312572338 529.830729167 69.3068214699 533.1640625 c 128,-1,168
 70.982385706 536.497395833 70.982385706 536.497395833 74.2612123843 536.748697917 c 2,169,-1
 77.5400390625 537 l 5,155,-1
141 459 m 6,170,-1
 888 459 l 2,171,172
 894 459 894 459 898.5 454.5 c 128,-1,173
 903 450 903 450 903 444 c 2,174,-1
 903 225 l 2,175,176
 903 219 903 219 898.5 214.5 c 128,-1,177
 894 210 894 210 888 210 c 2,178,-1
 141 210 l 2,179,180
 135 210 135 210 130.5 214.5 c 128,-1,181
 126 219 126 219 126 225 c 2,182,-1
 126 444 l 2,183,184
 126 450 126 450 130.5 454.5 c 128,-1,185
 135 459 135 459 141 459 c 6,170,-1
EndSplineSet
EndChar
